<svg xmlns="http://www.w3.org/2000/svg" viewBox="0 0 638.1325 1093" width="638.1325" height="1093" style="--bg:#FFFFFF;--fg:#27272A;background:var(--bg)">
<style>
  @import url('https://fonts.googleapis.com/css2?family=Inter:wght@400;500;600;700&amp;display=swap');
  text { font-family: 'Inter', system-ui, sans-serif; }
  svg {
    /* Derived from --bg and --fg (overridable via --line, --accent, etc.) */
    --_text:          var(--fg);
    --_text-sec:      var(--muted, color-mix(in srgb, var(--fg) 60%, var(--bg)));
    --_text-muted:    var(--muted, color-mix(in srgb, var(--fg) 40%, var(--bg)));
    --_text-faint:    color-mix(in srgb, var(--fg) 25%, var(--bg));
    --_line:          var(--line, color-mix(in srgb, var(--fg) 30%, var(--bg)));
    --_arrow:         var(--accent, color-mix(in srgb, var(--fg) 50%, var(--bg)));
    --_node-fill:     var(--surface, color-mix(in srgb, var(--fg) 3%, var(--bg)));
    --_node-stroke:   var(--border, color-mix(in srgb, var(--fg) 20%, var(--bg)));
    --_group-fill:    var(--bg);
    --_group-hdr:     color-mix(in srgb, var(--fg) 5%, var(--bg));
    --_inner-stroke:  color-mix(in srgb, var(--fg) 12%, var(--bg));
    --_key-badge:     color-mix(in srgb, var(--fg) 10%, var(--bg));
  }
</style>
<defs>
  <marker id="arrowhead" markerWidth="8" markerHeight="4.8" refX="8" refY="2.4" orient="auto">
    <polygon points="0 0, 8 2.4, 0 4.8" fill="var(--_arrow)" />
  </marker>
  <marker id="arrowhead-start" markerWidth="8" markerHeight="4.8" refX="0" refY="2.4" orient="auto-start-reverse">
    <polygon points="8 0, 0 2.4, 8 4.8" fill="var(--_arrow)" />
  </marker>
</defs>
<rect x="40" y="40" width="245.15499999999997" height="500" rx="0" ry="0" fill="var(--_group-fill)" stroke="var(--_node-stroke)" stroke-width="1" />
<rect x="40" y="40" width="245.15499999999997" height="28" rx="0" ry="0" fill="var(--_group-hdr)" stroke="var(--_node-stroke)" stroke-width="1" />
<text x="52" y="54" dy="0.35em" font-size="12" font-weight="600" fill="var(--_text-sec)">&quot;Client Side&quot;</text>
<rect x="305.155" y="428" width="240.45000000000005" height="112" rx="0" ry="0" fill="var(--_group-fill)" stroke="var(--_node-stroke)" stroke-width="1" />
<rect x="305.155" y="428" width="240.45000000000005" height="28" rx="0" ry="0" fill="var(--_group-hdr)" stroke="var(--_node-stroke)" stroke-width="1" />
<text x="317.155" y="442" dy="0.35em" font-size="12" font-weight="600" fill="var(--_text-sec)">&quot;Encrypted Channel&quot;</text>
<rect x="127.7075000000001" y="601" width="457.69499999999994" height="268" rx="0" ry="0" fill="var(--_group-fill)" stroke="var(--_node-stroke)" stroke-width="1" />
<rect x="127.7075000000001" y="601" width="457.69499999999994" height="28" rx="0" ry="0" fill="var(--_group-hdr)" stroke="var(--_node-stroke)" stroke-width="1" />
<text x="139.7075000000001" y="615" dy="0.35em" font-size="12" font-weight="600" fill="var(--_text-sec)">&quot;Server Side&quot;</text>
<rect x="287.38250000000005" y="930" width="310.75" height="123" rx="0" ry="0" fill="var(--_group-fill)" stroke="var(--_node-stroke)" stroke-width="1" />
<rect x="287.38250000000005" y="930" width="310.75" height="28" rx="0" ry="0" fill="var(--_group-hdr)" stroke="var(--_node-stroke)" stroke-width="1" />
<text x="299.38250000000005" y="944" dy="0.35em" font-size="12" font-weight="600" fill="var(--_text-sec)">&quot;Persistent Storage&quot;</text>
<polyline points="138.77499999999998,174 138.77499999999998,311" fill="none" stroke="var(--_line)" stroke-width="0.75" marker-end="url(#arrowhead)" />
<polyline points="138.77499999999998,347 138.77499999999998,484" fill="none" stroke="var(--_line)" stroke-width="0.75" marker-end="url(#arrowhead)" />
<polyline points="138.77499999999998,347 138.77499999999998,367 226.83500000000004,367 226.83500000000004,502 327.155,502" fill="none" stroke="var(--_line)" stroke-width="0.75" marker-end="url(#arrowhead)" marker-start="url(#arrowhead-start)" />
<polyline points="425.38,520 425.38,657" fill="none" stroke="var(--_line)" stroke-width="0.75" marker-end="url(#arrowhead)" marker-start="url(#arrowhead-start)" />
<polyline points="425.38,693 425.38,713 219.3325000000001,713 219.3325000000001,813" fill="none" stroke="var(--_line)" stroke-width="0.75" marker-end="url(#arrowhead)" />
<polyline points="425.38,693 425.38,713 368.2825,713 368.2825,813" fill="none" stroke="var(--_line)" stroke-width="0.75" marker-end="url(#arrowhead)" marker-start="url(#arrowhead-start)" />
<polyline points="368.2825,849 368.2825,986" fill="none" stroke="var(--_line)" stroke-width="0.75" marker-end="url(#arrowhead)" marker-start="url(#arrowhead-start)" />
<polyline points="425.38,693 425.38,713 513.6575,713 513.6575,986" fill="none" stroke="var(--_line)" stroke-width="0.75" marker-end="url(#arrowhead)" marker-start="url(#arrowhead-start)" />
<rect x="102.17499999999998" y="229" width="73.2" height="27" rx="4" ry="4" fill="var(--bg)" stroke="var(--_inner-stroke)" stroke-width="0.5" />
<text x="138.77499999999998" y="242.5" text-anchor="middle" dy="0.35em" font-size="11" font-weight="400" fill="var(--_text-muted)">&quot;Commands&quot;</text>
<rect x="105.03499999999997" y="402" width="67.48" height="27" rx="4" ry="4" fill="var(--bg)" stroke="var(--_inner-stroke)" stroke-width="0.5" />
<text x="138.77499999999998" y="415.5" text-anchor="middle" dy="0.35em" font-size="11" font-weight="400" fill="var(--_text-muted)">&quot;History&quot;</text>
<rect x="184.51500000000004" y="402" width="84.64" height="27" rx="4" ry="4" fill="var(--bg)" stroke="var(--_inner-stroke)" stroke-width="0.5" />
<text x="226.83500000000004" y="415.5" text-anchor="middle" dy="0.35em" font-size="11" font-weight="400" fill="var(--_text-muted)">&quot;AppMessage&quot;</text>
<rect x="383.06" y="575" width="84.64" height="27" rx="4" ry="4" fill="var(--bg)" stroke="var(--_inner-stroke)" stroke-width="0.5" />
<text x="425.38" y="588.5" text-anchor="middle" dy="0.35em" font-size="11" font-weight="400" fill="var(--_text-muted)">&quot;AppMessage&quot;</text>
<rect x="305.9425" y="904" width="124.68" height="27" rx="4" ry="4" fill="var(--bg)" stroke="var(--_inner-stroke)" stroke-width="0.5" />
<text x="368.2825" y="917.5" text-anchor="middle" dy="0.35em" font-size="11" font-weight="400" fill="var(--_text-muted)">&quot;Encrypted Queries&quot;</text>
<rect x="479.9175" y="817.5" width="67.48" height="27" rx="4" ry="4" fill="var(--bg)" stroke="var(--_inner-stroke)" stroke-width="0.5" />
<text x="513.6575" y="831" text-anchor="middle" dy="0.35em" font-size="11" font-weight="400" fill="var(--_text-muted)">&quot;File IO&quot;</text>
<circle cx="138.77499999999998" cy="135" r="39" fill="var(--_node-fill)" stroke="var(--_node-stroke)" stroke-width="0.75" />
<rect x="87.02499999999998" y="311" width="103.5" height="36" rx="0" ry="0" fill="var(--_node-fill)" stroke="var(--_node-stroke)" stroke-width="0.75" />
<rect x="61.99999999999997" y="484" width="153.55" height="36" rx="0" ry="0" fill="var(--_node-fill)" stroke="var(--_node-stroke)" stroke-width="0.75" />
<rect x="327.155" y="484" width="196.45000000000002" height="36" rx="0" ry="0" fill="var(--_node-fill)" stroke="var(--_node-stroke)" stroke-width="0.75" />
<rect x="337.88" y="657" width="175" height="36" rx="0" ry="0" fill="var(--_node-fill)" stroke="var(--_node-stroke)" stroke-width="0.75" />
<rect x="149.7075000000001" y="813" width="139.25" height="36" rx="0" ry="0" fill="var(--_node-fill)" stroke="var(--_node-stroke)" stroke-width="0.75" />
<rect x="312.95750000000004" y="813" width="110.65" height="36" rx="0" ry="0" fill="var(--_node-fill)" stroke="var(--_node-stroke)" stroke-width="0.75" />
<rect x="309.38250000000005" y="993" width="117.80000000000001" height="33" fill="var(--_node-fill)" stroke="none" />
<line x1="309.38250000000005" y1="993" x2="309.38250000000005" y2="1026" stroke="var(--_node-stroke)" stroke-width="0.75" />
<line x1="427.18250000000006" y1="993" x2="427.18250000000006" y2="1026" stroke="var(--_node-stroke)" stroke-width="0.75" />
<ellipse cx="368.2825" cy="1026" rx="58.900000000000006" ry="7" fill="var(--_node-fill)" stroke="var(--_node-stroke)" stroke-width="0.75" />
<ellipse cx="368.2825" cy="993" rx="58.900000000000006" ry="7" fill="var(--_node-fill)" stroke="var(--_node-stroke)" stroke-width="0.75" />
<rect x="451.1825" y="993" width="124.95" height="33" fill="var(--_node-fill)" stroke="none" />
<line x1="451.1825" y1="993" x2="451.1825" y2="1026" stroke="var(--_node-stroke)" stroke-width="0.75" />
<line x1="576.1325" y1="993" x2="576.1325" y2="1026" stroke="var(--_node-stroke)" stroke-width="0.75" />
<ellipse cx="513.6575" cy="1026" rx="62.475" ry="7" fill="var(--_node-fill)" stroke="var(--_node-stroke)" stroke-width="0.75" />
<ellipse cx="513.6575" cy="993" rx="62.475" ry="7" fill="var(--_node-fill)" stroke="var(--_node-stroke)" stroke-width="0.75" />
<text x="138.77499999999998" y="135" text-anchor="middle" dy="0.35em" font-size="13" font-weight="500" fill="var(--_text)">User</text>
<text x="138.77499999999998" y="329" text-anchor="middle" dy="0.35em" font-size="13" font-weight="500" fill="var(--_text)">&quot;CLI REPL&quot;</text>
<text x="138.77499999999998" y="502" text-anchor="middle" dy="0.35em" font-size="13" font-weight="500" fill="var(--_text)">&quot;Command History&quot;</text>
<text x="425.38" y="502" text-anchor="middle" dy="0.35em" font-size="13" font-weight="500" fill="var(--_text)">&quot;WebSocket AES-256-GCM&quot;</text>
<text x="425.38" y="675" text-anchor="middle" dy="0.35em" font-size="13" font-weight="500" fill="var(--_text)">&quot;Connection Handler&quot;</text>
<text x="219.3325000000001" y="831" text-anchor="middle" dy="0.35em" font-size="13" font-weight="500" fill="var(--_text)">&quot;Session State&quot;</text>
<text x="368.2825" y="831" text-anchor="middle" dy="0.35em" font-size="13" font-weight="500" fill="var(--_text)">&quot;DAO Layer&quot;</text>
<text x="368.2825" y="1009.5" text-anchor="middle" dy="0.35em" font-size="13" font-weight="500" fill="var(--_text)">&quot;PostgreSQL&quot;</text>
<text x="513.6575" y="1009.5" text-anchor="middle" dy="0.35em" font-size="13" font-weight="500" fill="var(--_text)">&quot;File System&quot;</text>
</svg>