<svg xmlns="http://www.w3.org/2000/svg" viewBox="0 0 853.7 1285.4499999999998" width="853.7" height="1285.4499999999998" style="--bg:#FFFFFF;--fg:#27272A;background:var(--bg)">
<style>
  @import url('https://fonts.googleapis.com/css2?family=Inter:wght@400;500;600;700&amp;display=swap');
  text { font-family: 'Inter', system-ui, sans-serif; }
  svg {
    /* Derived from --bg and --fg (overridable via --line, --accent, etc.) */
    --_text:          var(--fg);
    --_text-sec:      var(--muted, color-mix(in srgb, var(--fg) 60%, var(--bg)));
    --_text-muted:    var(--muted, color-mix(in srgb, var(--fg) 40%, var(--bg)));
    --_text-faint:    color-mix(in srgb, var(--fg) 25%, var(--bg));
    --_line:          var(--line, color-mix(in srgb, var(--fg) 30%, var(--bg)));
    --_arrow:         var(--accent, color-mix(in srgb, var(--fg) 50%, var(--bg)));
    --_node-fill:     var(--surface, color-mix(in srgb, var(--fg) 3%, var(--bg)));
    --_node-stroke:   var(--border, color-mix(in srgb, var(--fg) 20%, var(--bg)));
    --_group-fill:    var(--bg);
    --_group-hdr:     color-mix(in srgb, var(--fg) 5%, var(--bg));
    --_inner-stroke:  color-mix(in srgb, var(--fg) 12%, var(--bg));
    --_key-badge:     color-mix(in srgb, var(--fg) 10%, var(--bg));
  }
</style>
<defs>
  <marker id="arrowhead" markerWidth="8" markerHeight="4.8" refX="8" refY="2.4" orient="auto">
    <polygon points="0 0, 8 2.4, 0 4.8" fill="var(--_arrow)" />
  </marker>
  <marker id="arrowhead-start" markerWidth="8" markerHeight="4.8" refX="0" refY="2.4" orient="auto-start-reverse">
    <polygon points="8 0, 0 2.4, 8 4.8" fill="var(--_arrow)" />
  </marker>
</defs>
<polyline points="426.84999999999997,76 426.84999999999997,116" fill="none" stroke="var(--_line)" stroke-width="0.75" marker-end="url(#arrowhead)" />
<polyline points="426.84999999999997,152 426.84999999999997,192" fill="none" stroke="var(--_line)" stroke-width="0.75" marker-end="url(#arrowhead)" />
<polyline points="426.84999999999997,228 426.84999999999997,268" fill="none" stroke="var(--_line)" stroke-width="0.75" marker-end="url(#arrowhead)" />
<polyline points="426.84999999999997,304 426.84999999999997,344" fill="none" stroke="var(--_line)" stroke-width="0.75" marker-end="url(#arrowhead)" />
<polyline points="426.84999999999997,380 426.84999999999997,420" fill="none" stroke="var(--_line)" stroke-width="0.75" marker-end="url(#arrowhead)" />
<polyline points="367.1695995785036,530.7195995785037 367.1695995785036,618.9 160.95,618.9 160.95,910.55" fill="none" stroke="var(--_line)" stroke-width="0.75" marker-end="url(#arrowhead)" />
<polyline points="472.7747516724103,544.4752483275897 472.7747516724103,618.9 559.8,618.9 559.8,647.4" fill="none" stroke="var(--_line)" stroke-width="0.75" marker-end="url(#arrowhead)" />
<polyline points="123.77816787170931,1115.2781678717092 123.77816787170931,1180.9499999999998 94.64000000000006,1180.9499999999998 94.64000000000006,1227.4499999999998 83.46000000000008,1227.4499999999998" fill="none" stroke="var(--_line)" stroke-width="0.75" marker-end="url(#arrowhead)" />
<polyline points="240.48882588774347,1072.9111741122565 240.48882588774347,1180.9499999999998 447.99999999999994,1180.9499999999998 447.99999999999994,1227.4499999999998 624.555,1227.4499999999998" fill="none" stroke="var(--_line)" stroke-width="0.75" marker-end="url(#arrowhead)" />
<polyline points="507.9946082600888,801.7446082600889 507.9946082600888,882.05 426.84999999999997,882.05 426.84999999999997,910.55" fill="none" stroke="var(--_line)" stroke-width="0.75" marker-end="url(#arrowhead)" />
<polyline points="611.6053917399112,801.7446082600889 611.6053917399112,882.05 692.75,882.05 692.75,910.55" fill="none" stroke="var(--_line)" stroke-width="0.75" marker-end="url(#arrowhead)" />
<polyline points="361.3256814767116,1086.9256814767116 361.3256814767116,1180.9499999999998 250.17000000000002,1180.9499999999998 250.17000000000002,1227.4499999999998 229.86000000000007,1227.4499999999998" fill="none" stroke="var(--_line)" stroke-width="0.75" marker-end="url(#arrowhead)" />
<polyline points="491.88396232251677,1087.4160376774832 491.88396232251677,1180.9499999999998 600.67,1180.9499999999998 600.67,1227.4499999999998 624.555,1227.4499999999998" fill="none" stroke="var(--_line)" stroke-width="0.75" marker-end="url(#arrowhead)" />
<polyline points="613.2111741122565,1072.9111741122565 613.2111741122565,1180.9499999999998 405.7,1180.9499999999998 405.7,1227.4499999999998 229.86000000000007,1227.4499999999998" fill="none" stroke="var(--_line)" stroke-width="0.75" marker-end="url(#arrowhead)" />
<polyline points="727.6403089887641,1117.5596910112358 727.6403089887641,1180.9499999999998 753.34,1180.9499999999998 753.34,1227.4499999999998 763.805,1227.4499999999998" fill="none" stroke="var(--_line)" stroke-width="0.75" marker-end="url(#arrowhead)" />
<rect x="144.37" y="736.975" width="33.16" height="27" rx="4" ry="4" fill="var(--bg)" stroke="var(--_inner-stroke)" stroke-width="0.5" />
<text x="160.95" y="750.475" text-anchor="middle" dy="0.35em" font-size="11" font-weight="400" fill="var(--_text-muted)">Yes</text>
<rect x="546.0799999999999" y="605.4" width="27.44" height="27" rx="4" ry="4" fill="var(--bg)" stroke="var(--_inner-stroke)" stroke-width="0.5" />
<text x="559.8" y="618.9" text-anchor="middle" dy="0.35em" font-size="11" font-weight="400" fill="var(--_text-muted)">No</text>
<rect x="78.06000000000006" y="1167.4499999999998" width="33.16" height="27" rx="4" ry="4" fill="var(--bg)" stroke="var(--_inner-stroke)" stroke-width="0.5" />
<text x="94.64000000000006" y="1180.9499999999998" text-anchor="middle" dy="0.35em" font-size="11" font-weight="400" fill="var(--_text-muted)">Yes</text>
<rect x="434.2799999999999" y="1167.4499999999998" width="27.44" height="27" rx="4" ry="4" fill="var(--bg)" stroke="var(--_inner-stroke)" stroke-width="0.5" />
<text x="447.99999999999994" y="1180.9499999999998" text-anchor="middle" dy="0.35em" font-size="11" font-weight="400" fill="var(--_text-muted)">No</text>
<rect x="410.27" y="868.55" width="33.16" height="27" rx="4" ry="4" fill="var(--bg)" stroke="var(--_inner-stroke)" stroke-width="0.5" />
<text x="426.84999999999997" y="882.05" text-anchor="middle" dy="0.35em" font-size="11" font-weight="400" fill="var(--_text-muted)">Yes</text>
<rect x="679.03" y="868.55" width="27.44" height="27" rx="4" ry="4" fill="var(--bg)" stroke="var(--_inner-stroke)" stroke-width="0.5" />
<text x="692.75" y="882.05" text-anchor="middle" dy="0.35em" font-size="11" font-weight="400" fill="var(--_text-muted)">No</text>
<rect x="233.59000000000003" y="1167.4499999999998" width="33.16" height="27" rx="4" ry="4" fill="var(--bg)" stroke="var(--_inner-stroke)" stroke-width="0.5" />
<text x="250.17000000000002" y="1180.9499999999998" text-anchor="middle" dy="0.35em" font-size="11" font-weight="400" fill="var(--_text-muted)">Yes</text>
<rect x="586.9499999999999" y="1167.4499999999998" width="27.44" height="27" rx="4" ry="4" fill="var(--bg)" stroke="var(--_inner-stroke)" stroke-width="0.5" />
<text x="600.67" y="1180.9499999999998" text-anchor="middle" dy="0.35em" font-size="11" font-weight="400" fill="var(--_text-muted)">No</text>
<rect x="389.12" y="1167.4499999999998" width="33.16" height="27" rx="4" ry="4" fill="var(--bg)" stroke="var(--_inner-stroke)" stroke-width="0.5" />
<text x="405.7" y="1180.9499999999998" text-anchor="middle" dy="0.35em" font-size="11" font-weight="400" fill="var(--_text-muted)">Yes</text>
<rect x="739.62" y="1167.4499999999998" width="27.44" height="27" rx="4" ry="4" fill="var(--bg)" stroke="var(--_inner-stroke)" stroke-width="0.5" />
<text x="753.34" y="1180.9499999999998" text-anchor="middle" dy="0.35em" font-size="11" font-weight="400" fill="var(--_text-muted)">No</text>
<rect x="310.74999999999994" y="40" width="232.20000000000002" height="36" rx="0" ry="0" fill="var(--_node-fill)" stroke="var(--_node-stroke)" stroke-width="0.75" />
<rect x="342.92499999999995" y="116" width="167.85000000000002" height="36" rx="0" ry="0" fill="var(--_node-fill)" stroke="var(--_node-stroke)" stroke-width="0.75" />
<rect x="353.65" y="192" width="146.4" height="36" rx="0" ry="0" fill="var(--_node-fill)" stroke="var(--_node-stroke)" stroke-width="0.75" />
<rect x="353.65" y="268" width="146.4" height="36" rx="0" ry="0" fill="var(--_node-fill)" stroke="var(--_node-stroke)" stroke-width="0.75" />
<rect x="350.07499999999993" y="344" width="153.55" height="36" rx="0" ry="0" fill="var(--_node-fill)" stroke="var(--_node-stroke)" stroke-width="0.75" />
<polygon points="426.84999999999997,420 512.05,505.2 426.84999999999997,590.4 341.65,505.2" fill="var(--_node-fill)" stroke="var(--_node-stroke)" stroke-width="0.75" />
<polygon points="160.95,910.55 281.9,1031.5 160.95,1152.45 39.999999999999986,1031.5" fill="var(--_node-fill)" stroke="var(--_node-stroke)" stroke-width="0.75" />
<polygon points="559.8,647.4 662.875,750.475 559.8,853.5500000000001 456.72499999999997,750.475" fill="var(--_node-fill)" stroke="var(--_node-stroke)" stroke-width="0.75" />
<polygon points="426.84999999999997,910.55 547.8,1031.5 426.84999999999997,1152.45 305.9,1031.5" fill="var(--_node-fill)" stroke="var(--_node-stroke)" stroke-width="0.75" />
<polygon points="692.75,910.55 813.7,1031.5 692.75,1152.45 571.8,1031.5" fill="var(--_node-fill)" stroke="var(--_node-stroke)" stroke-width="0.75" />
<rect x="83.46000000000008" y="1209.4499999999998" width="146.4" height="36" rx="0" ry="0" fill="#2d5a3d" stroke="#4ade80" stroke-width="0.75" />
<rect x="624.555" y="1209.4499999999998" width="139.25" height="36" rx="0" ry="0" fill="#5a2d2d" stroke="#f87171" stroke-width="0.75" />
<text x="426.84999999999997" y="58" text-anchor="middle" dy="0.35em" font-size="13" font-weight="500" fill="var(--_text)">&quot;File or Dir Access Request&quot;</text>
<text x="426.84999999999997" y="134" text-anchor="middle" dy="0.35em" font-size="13" font-weight="500" fill="var(--_text)">&quot;Get FNode from DB&quot;</text>
<text x="426.84999999999997" y="210" text-anchor="middle" dy="0.35em" font-size="13" font-weight="500" fill="var(--_text)">&quot;Get Owner Info&quot;</text>
<text x="426.84999999999997" y="286" text-anchor="middle" dy="0.35em" font-size="13" font-weight="500" fill="var(--_text)">&quot;Get File Group&quot;</text>
<text x="426.8499999999999" y="362" text-anchor="middle" dy="0.35em" font-size="13" font-weight="500" fill="var(--_text)">&quot;Get User Groups&quot;</text>
<text x="426.84999999999997" y="505.2" text-anchor="middle" dy="0.35em" font-size="13" font-weight="500" fill="var(--_text)">&quot;Is User Owner?&quot;</text>
<text x="160.95" y="1031.5" text-anchor="middle" dy="0.35em" font-size="13" font-weight="500" fill="var(--_text)">&quot;Owner Permission Allows?&quot;</text>
<text x="559.8" y="750.475" text-anchor="middle" dy="0.35em" font-size="13" font-weight="500" fill="var(--_text)">&quot;User in File Group?&quot;</text>
<text x="426.84999999999997" y="1031.5" text-anchor="middle" dy="0.35em" font-size="13" font-weight="500" fill="var(--_text)">&quot;Group Permission Allows?&quot;</text>
<text x="692.75" y="1031.5" text-anchor="middle" dy="0.35em" font-size="13" font-weight="500" fill="var(--_text)">&quot;Other Permission Allows?&quot;</text>
<text x="156.66000000000008" y="1227.4499999999998" text-anchor="middle" dy="0.35em" font-size="13" font-weight="500" fill="var(--_text)">&quot;ACCESS GRANTED&quot;</text>
<text x="694.18" y="1227.4499999999998" text-anchor="middle" dy="0.35em" font-size="13" font-weight="500" fill="var(--_text)">&quot;ACCESS DENIED&quot;</text>
</svg>