<svg xmlns="http://www.w3.org/2000/svg" viewBox="0 0 1025.3000000000002 1399.85" width="1025.3000000000002" height="1399.85" style="--bg:#FFFFFF;--fg:#27272A;background:var(--bg)">
<style>
  @import url('https://fonts.googleapis.com/css2?family=Inter:wght@400;500;600;700&amp;display=swap');
  text { font-family: 'Inter', system-ui, sans-serif; }
  svg {
    /* Derived from --bg and --fg (overridable via --line, --accent, etc.) */
    --_text:          var(--fg);
    --_text-sec:      var(--muted, color-mix(in srgb, var(--fg) 60%, var(--bg)));
    --_text-muted:    var(--muted, color-mix(in srgb, var(--fg) 40%, var(--bg)));
    --_text-faint:    color-mix(in srgb, var(--fg) 25%, var(--bg));
    --_line:          var(--line, color-mix(in srgb, var(--fg) 30%, var(--bg)));
    --_arrow:         var(--accent, color-mix(in srgb, var(--fg) 50%, var(--bg)));
    --_node-fill:     var(--surface, color-mix(in srgb, var(--fg) 3%, var(--bg)));
    --_node-stroke:   var(--border, color-mix(in srgb, var(--fg) 20%, var(--bg)));
    --_group-fill:    var(--bg);
    --_group-hdr:     color-mix(in srgb, var(--fg) 5%, var(--bg));
    --_inner-stroke:  color-mix(in srgb, var(--fg) 12%, var(--bg));
    --_key-badge:     color-mix(in srgb, var(--fg) 10%, var(--bg));
  }
</style>
<defs>
  <marker id="arrowhead" markerWidth="8" markerHeight="4.8" refX="8" refY="2.4" orient="auto">
    <polygon points="0 0, 8 2.4, 0 4.8" fill="var(--_arrow)" />
  </marker>
  <marker id="arrowhead-start" markerWidth="8" markerHeight="4.8" refX="0" refY="2.4" orient="auto-start-reverse">
    <polygon points="8 0, 0 2.4, 8 4.8" fill="var(--_arrow)" />
  </marker>
</defs>
<polyline points="512.6500000000001,76 512.6500000000001,116" fill="none" stroke="var(--_line)" stroke-width="0.75" marker-end="url(#arrowhead)" />
<polyline points="512.6500000000001,152 512.6500000000001,192" fill="none" stroke="var(--_line)" stroke-width="0.75" marker-end="url(#arrowhead)" />
<polyline points="512.6500000000001,228 512.6500000000001,268" fill="none" stroke="var(--_line)" stroke-width="0.75" marker-end="url(#arrowhead)" />
<polyline points="512.6500000000001,304 512.6500000000001,344" fill="none" stroke="var(--_line)" stroke-width="0.75" marker-end="url(#arrowhead)" />
<polyline points="512.6500000000001,380 512.6500000000001,420" fill="none" stroke="var(--_line)" stroke-width="0.75" marker-end="url(#arrowhead)" />
<polyline points="441.3832077144758,547.7332077144757 441.3832077144758,647.5 189.55,647.5 189.55,967.75" fill="none" stroke="var(--_line)" stroke-width="0.75" marker-end="url(#arrowhead)" />
<polyline points="568.1645052667934,563.4854947332067 568.1645052667934,647.5 674.2,647.5 674.2,676" fill="none" stroke="var(--_line)" stroke-width="0.75" marker-end="url(#arrowhead)" />
<polyline points="148.96782411196597,1226.2678241119659 148.96782411196597,1295.35 123.24000000000007,1295.35 123.24000000000007,1341.85 112.0600000000001,1341.85" fill="none" stroke="var(--_line)" stroke-width="0.75" marker-end="url(#arrowhead)" />
<polyline points="288.11899770246987,1168.28100229753 288.11899770246987,1295.35 533.8,1295.35 533.8,1341.85 767.5550000000001,1341.85" fill="none" stroke="var(--_line)" stroke-width="0.75" marker-end="url(#arrowhead)" />
<polyline points="612.520139058307,849.070139058307 612.520139058307,939.25 512.6500000000001,939.25 512.6500000000001,967.75" fill="none" stroke="var(--_line)" stroke-width="0.75" marker-end="url(#arrowhead)" />
<polyline points="735.8798609416931,849.070139058307 735.8798609416931,939.25 835.75,939.25 835.75,967.75" fill="none" stroke="var(--_line)" stroke-width="0.75" marker-end="url(#arrowhead)" />
<polyline points="432.56332794198215,1186.763327941982 432.56332794198215,1295.35 307.37000000000006,1295.35 307.37000000000006,1341.85 258.4600000000001,1341.85" fill="none" stroke="var(--_line)" stroke-width="0.75" marker-end="url(#arrowhead)" />
<polyline points="592.2145149420455,1187.2854850579545 592.2145149420455,1295.35 715.0700000000002,1295.35 715.0700000000002,1341.85 767.5550000000001,1341.85" fill="none" stroke="var(--_line)" stroke-width="0.75" marker-end="url(#arrowhead)" />
<polyline points="737.1810022975302,1168.2810022975302 737.1810022975302,1295.35 491.50000000000006,1295.35 491.50000000000006,1341.85 258.4600000000001,1341.85" fill="none" stroke="var(--_line)" stroke-width="0.75" marker-end="url(#arrowhead)" />
<polyline points="873.7203088333893,1228.8796911666107 873.7203088333893,1295.35 896.3400000000001,1295.35 896.3400000000001,1341.85 906.8050000000001,1341.85" fill="none" stroke="var(--_line)" stroke-width="0.75" marker-end="url(#arrowhead)" />
<rect x="172.97000000000003" y="779.875" width="33.16" height="27" rx="4" ry="4" fill="var(--bg)" stroke="var(--_inner-stroke)" stroke-width="0.5" />
<text x="189.55" y="793.375" text-anchor="middle" dy="0.35em" font-size="11" font-weight="400" fill="var(--_text-muted)">Yes</text>
<rect x="660.48" y="634" width="27.44" height="27" rx="4" ry="4" fill="var(--bg)" stroke="var(--_inner-stroke)" stroke-width="0.5" />
<text x="674.2" y="647.5" text-anchor="middle" dy="0.35em" font-size="11" font-weight="400" fill="var(--_text-muted)">No</text>
<rect x="106.66000000000007" y="1281.85" width="33.16" height="27" rx="4" ry="4" fill="var(--bg)" stroke="var(--_inner-stroke)" stroke-width="0.5" />
<text x="123.24000000000007" y="1295.35" text-anchor="middle" dy="0.35em" font-size="11" font-weight="400" fill="var(--_text-muted)">Yes</text>
<rect x="520.0799999999999" y="1281.85" width="27.44" height="27" rx="4" ry="4" fill="var(--bg)" stroke="var(--_inner-stroke)" stroke-width="0.5" />
<text x="533.8" y="1295.35" text-anchor="middle" dy="0.35em" font-size="11" font-weight="400" fill="var(--_text-muted)">No</text>
<rect x="496.0700000000001" y="925.75" width="33.16" height="27" rx="4" ry="4" fill="var(--bg)" stroke="var(--_inner-stroke)" stroke-width="0.5" />
<text x="512.6500000000001" y="939.25" text-anchor="middle" dy="0.35em" font-size="11" font-weight="400" fill="var(--_text-muted)">Yes</text>
<rect x="822.03" y="925.75" width="27.44" height="27" rx="4" ry="4" fill="var(--bg)" stroke="var(--_inner-stroke)" stroke-width="0.5" />
<text x="835.75" y="939.25" text-anchor="middle" dy="0.35em" font-size="11" font-weight="400" fill="var(--_text-muted)">No</text>
<rect x="290.7900000000001" y="1281.85" width="33.16" height="27" rx="4" ry="4" fill="var(--bg)" stroke="var(--_inner-stroke)" stroke-width="0.5" />
<text x="307.37000000000006" y="1295.35" text-anchor="middle" dy="0.35em" font-size="11" font-weight="400" fill="var(--_text-muted)">Yes</text>
<rect x="701.3500000000001" y="1281.85" width="27.44" height="27" rx="4" ry="4" fill="var(--bg)" stroke="var(--_inner-stroke)" stroke-width="0.5" />
<text x="715.0700000000002" y="1295.35" text-anchor="middle" dy="0.35em" font-size="11" font-weight="400" fill="var(--_text-muted)">No</text>
<rect x="474.9200000000001" y="1281.85" width="33.16" height="27" rx="4" ry="4" fill="var(--bg)" stroke="var(--_inner-stroke)" stroke-width="0.5" />
<text x="491.50000000000006" y="1295.35" text-anchor="middle" dy="0.35em" font-size="11" font-weight="400" fill="var(--_text-muted)">Yes</text>
<rect x="882.6200000000001" y="1281.85" width="27.44" height="27" rx="4" ry="4" fill="var(--bg)" stroke="var(--_inner-stroke)" stroke-width="0.5" />
<text x="896.3400000000001" y="1295.35" text-anchor="middle" dy="0.35em" font-size="11" font-weight="400" fill="var(--_text-muted)">No</text>
<rect x="407.2750000000001" y="40" width="210.75000000000003" height="36" rx="0" ry="0" fill="var(--_node-fill)" stroke="var(--_node-stroke)" stroke-width="0.75" />
<rect x="428.7250000000001" y="116" width="167.85000000000002" height="36" rx="0" ry="0" fill="var(--_node-fill)" stroke="var(--_node-stroke)" stroke-width="0.75" />
<rect x="439.4500000000001" y="192" width="146.4" height="36" rx="0" ry="0" fill="var(--_node-fill)" stroke="var(--_node-stroke)" stroke-width="0.75" />
<rect x="439.4500000000001" y="268" width="146.4" height="36" rx="0" ry="0" fill="var(--_node-fill)" stroke="var(--_node-stroke)" stroke-width="0.75" />
<rect x="435.8750000000001" y="344" width="153.55" height="36" rx="0" ry="0" fill="var(--_node-fill)" stroke="var(--_node-stroke)" stroke-width="0.75" />
<polygon points="512.6500000000001,420 612.1500000000001,519.5 512.6500000000001,619 413.1500000000001,519.5" fill="var(--_node-fill)" stroke="var(--_node-stroke)" stroke-width="0.75" />
<polygon points="189.55,967.75 339.1,1117.3 189.55,1266.85 40,1117.3" fill="var(--_node-fill)" stroke="var(--_node-stroke)" stroke-width="0.75" />
<polygon points="674.2,676 791.575,793.375 674.2,910.75 556.825,793.375" fill="var(--_node-fill)" stroke="var(--_node-stroke)" stroke-width="0.75" />
<polygon points="512.6500000000001,967.75 662.2,1117.3 512.6500000000001,1266.85 363.1000000000001,1117.3" fill="var(--_node-fill)" stroke="var(--_node-stroke)" stroke-width="0.75" />
<polygon points="835.75,967.75 985.3,1117.3 835.75,1266.85 686.2,1117.3" fill="var(--_node-fill)" stroke="var(--_node-stroke)" stroke-width="0.75" />
<rect x="112.0600000000001" y="1323.85" width="146.4" height="36" rx="0" ry="0" fill="#2d5a3d" stroke="#4ade80" stroke-width="0.75" />
<rect x="767.5550000000001" y="1323.85" width="139.25" height="36" rx="0" ry="0" fill="#5a2d2d" stroke="#f87171" stroke-width="0.75" />
<text x="512.6500000000001" y="58" text-anchor="middle" dy="0.35em" font-size="13" font-weight="500" fill="var(--_text)">&quot;File/Dir Access Request&quot;</text>
<text x="512.6500000000001" y="134" text-anchor="middle" dy="0.35em" font-size="13" font-weight="500" fill="var(--_text)">&quot;Get FNode from DB&quot;</text>
<text x="512.6500000000001" y="210" text-anchor="middle" dy="0.35em" font-size="13" font-weight="500" fill="var(--_text)">&quot;Get Owner Info&quot;</text>
<text x="512.6500000000001" y="286" text-anchor="middle" dy="0.35em" font-size="13" font-weight="500" fill="var(--_text)">&quot;Get File Group&quot;</text>
<text x="512.6500000000001" y="362" text-anchor="middle" dy="0.35em" font-size="13" font-weight="500" fill="var(--_text)">&quot;Get User Groups&quot;</text>
<text x="512.6500000000001" y="519.5" text-anchor="middle" dy="0.35em" font-size="13" font-weight="500" fill="var(--_text)">&quot;Is User&lt;br/&gt;Owner?&quot;</text>
<text x="189.55" y="1117.3" text-anchor="middle" dy="0.35em" font-size="13" font-weight="500" fill="var(--_text)">&quot;Owner&lt;br/&gt;Permission&lt;br/&gt;Allows?&quot;</text>
<text x="674.2" y="793.375" text-anchor="middle" dy="0.35em" font-size="13" font-weight="500" fill="var(--_text)">&quot;User in&lt;br/&gt;File Group?&quot;</text>
<text x="512.6500000000001" y="1117.3" text-anchor="middle" dy="0.35em" font-size="13" font-weight="500" fill="var(--_text)">&quot;Group&lt;br/&gt;Permission&lt;br/&gt;Allows?&quot;</text>
<text x="835.75" y="1117.3" text-anchor="middle" dy="0.35em" font-size="13" font-weight="500" fill="var(--_text)">&quot;Other&lt;br/&gt;Permission&lt;br/&gt;Allows?&quot;</text>
<text x="185.2600000000001" y="1341.85" text-anchor="middle" dy="0.35em" font-size="13" font-weight="500" fill="var(--_text)">&quot;ACCESS GRANTED&quot;</text>
<text x="837.1800000000001" y="1341.85" text-anchor="middle" dy="0.35em" font-size="13" font-weight="500" fill="var(--_text)">&quot;ACCESS DENIED&quot;</text>
</svg>