<svg xmlns="http://www.w3.org/2000/svg" viewBox="0 0 2053.9500000000003 1803" width="2053.9500000000003" height="1803" style="--bg:#FFFFFF;--fg:#27272A;background:var(--bg)">
<style>
  @import url('https://fonts.googleapis.com/css2?family=Inter:wght@400;500;600;700&amp;display=swap');
  text { font-family: 'Inter', system-ui, sans-serif; }
  svg {
    /* Derived from --bg and --fg (overridable via --line, --accent, etc.) */
    --_text:          var(--fg);
    --_text-sec:      var(--muted, color-mix(in srgb, var(--fg) 60%, var(--bg)));
    --_text-muted:    var(--muted, color-mix(in srgb, var(--fg) 40%, var(--bg)));
    --_text-faint:    color-mix(in srgb, var(--fg) 25%, var(--bg));
    --_line:          var(--line, color-mix(in srgb, var(--fg) 30%, var(--bg)));
    --_arrow:         var(--accent, color-mix(in srgb, var(--fg) 50%, var(--bg)));
    --_node-fill:     var(--surface, color-mix(in srgb, var(--fg) 3%, var(--bg)));
    --_node-stroke:   var(--border, color-mix(in srgb, var(--fg) 20%, var(--bg)));
    --_group-fill:    var(--bg);
    --_group-hdr:     color-mix(in srgb, var(--fg) 5%, var(--bg));
    --_inner-stroke:  color-mix(in srgb, var(--fg) 12%, var(--bg));
    --_key-badge:     color-mix(in srgb, var(--fg) 10%, var(--bg));
  }
</style>
<defs>
  <marker id="arrowhead" markerWidth="8" markerHeight="4.8" refX="8" refY="2.4" orient="auto">
    <polygon points="0 0, 8 2.4, 0 4.8" fill="var(--_arrow)" />
  </marker>
  <marker id="arrowhead-start" markerWidth="8" markerHeight="4.8" refX="0" refY="2.4" orient="auto-start-reverse">
    <polygon points="8 0, 0 2.4, 8 4.8" fill="var(--_arrow)" />
  </marker>
</defs>
<rect x="80.5000000000001" y="40" width="241.85000000000005" height="424" rx="0" ry="0" fill="var(--_group-fill)" stroke="var(--_node-stroke)" stroke-width="1" />
<rect x="80.5000000000001" y="40" width="241.85000000000005" height="28" rx="0" ry="0" fill="var(--_group-hdr)" stroke="var(--_node-stroke)" stroke-width="1" />
<text x="92.5000000000001" y="54" dy="0.35em" font-size="12" font-weight="600" fill="var(--_text-sec)">&quot;Client Environment&quot;</text>
<rect x="40" y="525" width="324.92500000000007" height="614" rx="0" ry="0" fill="var(--_group-fill)" stroke="var(--_node-stroke)" stroke-width="1" />
<rect x="40" y="525" width="324.92500000000007" height="28" rx="0" ry="0" fill="var(--_group-hdr)" stroke="var(--_node-stroke)" stroke-width="1" />
<text x="52" y="539" dy="0.35em" font-size="12" font-weight="600" fill="var(--_text-sec)">&quot;Transport Security&quot;</text>
<rect x="384.92500000000007" y="698" width="297.6500000000001" height="753" rx="0" ry="0" fill="var(--_group-fill)" stroke="var(--_node-stroke)" stroke-width="1" />
<rect x="384.92500000000007" y="698" width="297.6500000000001" height="28" rx="0" ry="0" fill="var(--_group-hdr)" stroke="var(--_node-stroke)" stroke-width="1" />
<text x="396.92500000000007" y="712" dy="0.35em" font-size="12" font-weight="600" fill="var(--_text-sec)">&quot;Server Environment&quot;</text>
<rect x="257.42500000000007" y="1495" width="375.10000000000014" height="268" rx="0" ry="0" fill="var(--_group-fill)" stroke="var(--_node-stroke)" stroke-width="1" />
<rect x="257.42500000000007" y="1495" width="375.10000000000014" height="28" rx="0" ry="0" fill="var(--_group-hdr)" stroke="var(--_node-stroke)" stroke-width="1" />
<text x="269.42500000000007" y="1509" dy="0.35em" font-size="12" font-weight="600" fill="var(--_text-sec)">&quot;Authentication&quot;</text>
<rect x="1069.0750000000003" y="1183" width="407.27499999999975" height="424" rx="0" ry="0" fill="var(--_group-fill)" stroke="var(--_node-stroke)" stroke-width="1" />
<rect x="1069.0750000000003" y="1183" width="407.27499999999975" height="28" rx="0" ry="0" fill="var(--_group-hdr)" stroke="var(--_node-stroke)" stroke-width="1" />
<text x="1081.0750000000003" y="1197" dy="0.35em" font-size="12" font-weight="600" fill="var(--_text-sec)">&quot;Database Security&quot;</text>
<rect x="702.5750000000002" y="1339" width="346.5" height="268" rx="0" ry="0" fill="var(--_group-fill)" stroke="var(--_node-stroke)" stroke-width="1" />
<rect x="702.5750000000002" y="1339" width="346.5" height="28" rx="0" ry="0" fill="var(--_group-hdr)" stroke="var(--_node-stroke)" stroke-width="1" />
<text x="714.5750000000002" y="1353" dy="0.35em" font-size="12" font-weight="600" fill="var(--_text-sec)">&quot;File Integrity&quot;</text>
<rect x="1496.35" y="1183" width="517.6000000000001" height="268" rx="0" ry="0" fill="var(--_group-fill)" stroke="var(--_node-stroke)" stroke-width="1" />
<rect x="1496.35" y="1183" width="517.6000000000001" height="28" rx="0" ry="0" fill="var(--_group-hdr)" stroke="var(--_node-stroke)" stroke-width="1" />
<text x="1508.35" y="1197" dy="0.35em" font-size="12" font-weight="600" fill="var(--_text-sec)">&quot;Permission System&quot;</text>
<polyline points="206.42500000000013,132 206.42500000000013,252" fill="none" stroke="var(--_line)" stroke-width="0.75" marker-end="url(#arrowhead)" />
<polyline points="206.42500000000013,288 206.42500000000013,408" fill="none" stroke="var(--_line)" stroke-width="0.75" marker-end="url(#arrowhead)" />
<polyline points="206.42500000000013,444 206.42500000000013,464 156.65000000000003,464 156.65000000000003,581" fill="none" stroke="var(--_line)" stroke-width="0.75" marker-end="url(#arrowhead)" />
<polyline points="156.65000000000003,617 156.65000000000003,772 476.48250000000013,772" fill="none" stroke="var(--_line)" stroke-width="0.75" marker-end="url(#arrowhead)" />
<polyline points="549.6825000000001,790 549.6825000000001,810 531.9625000000001,810 531.9625000000001,927" fill="none" stroke="var(--_line)" stroke-width="0.75" marker-end="url(#arrowhead)" />
<polyline points="206.42500000000013,444 206.42500000000013,464 273.30000000000007,464 273.30000000000007,927" fill="none" stroke="var(--_line)" stroke-width="0.75" stroke-dasharray="4 4" marker-end="url(#arrowhead)" />
<polyline points="549.6825000000001,790 549.6825000000001,810 579.5625000000001,810 579.5625000000001,945 342.92500000000007,945" fill="none" stroke="var(--_line)" stroke-width="0.75" stroke-dasharray="4 4" marker-end="url(#arrowhead)" />
<polyline points="273.30000000000007,963 273.30000000000007,1083" fill="none" stroke="var(--_line)" stroke-width="0.75" marker-end="url(#arrowhead)" />
<polyline points="273.30000000000007,1119 273.30000000000007,1159 560.2000000000002,1159 560.2000000000002,1239" fill="none" stroke="var(--_line)" stroke-width="0.75" marker-end="url(#arrowhead)" marker-start="url(#arrowhead-start)" />
<polyline points="560.2000000000002,1275 560.2000000000002,1295 533.7500000000001,1295 533.7500000000001,1395" fill="none" stroke="var(--_line)" stroke-width="0.75" marker-end="url(#arrowhead)" />
<polyline points="533.7500000000001,1431 533.7500000000001,1551" fill="none" stroke="var(--_line)" stroke-width="0.75" marker-end="url(#arrowhead)" />
<polyline points="533.7500000000001,1587 533.7500000000001,1707" fill="none" stroke="var(--_line)" stroke-width="0.75" marker-end="url(#arrowhead)" />
<polyline points="560.2000000000002,1275 560.2000000000002,1295 565.2000000000002,1295 565.2000000000002,1413 1185.2125,1413" fill="none" stroke="var(--_line)" stroke-width="0.75" marker-end="url(#arrowhead)" />
<polyline points="1272.7125,1431 1272.7125,1451 1176.7875000000004,1451 1176.7875000000004,1551" fill="none" stroke="var(--_line)" stroke-width="0.75" marker-end="url(#arrowhead)" />
<polyline points="1272.7125,1431 1272.7125,1451 1368.6375000000003,1451 1368.6375000000003,1551" fill="none" stroke="var(--_line)" stroke-width="0.75" marker-end="url(#arrowhead)" />
<polyline points="1272.7125,1275 1272.7125,1395" fill="none" stroke="var(--_line)" stroke-width="0.75" marker-end="url(#arrowhead)" />
<polyline points="560.2000000000002,1275 560.2000000000002,1295 608.1625000000001,1295 608.1625000000001,1413 809.7750000000001,1413" fill="none" stroke="var(--_line)" stroke-width="0.75" marker-end="url(#arrowhead)" />
<polyline points="872.2500000000001,1431 872.2500000000001,1451 790.6250000000001,1451 790.6250000000001,1551" fill="none" stroke="var(--_line)" stroke-width="0.75" marker-end="url(#arrowhead)" />
<polyline points="872.2500000000001,1431 872.2500000000001,1451 953.8750000000001,1451 953.8750000000001,1551" fill="none" stroke="var(--_line)" stroke-width="0.75" marker-end="url(#arrowhead)" />
<polyline points="560.2000000000002,1275 560.2000000000002,1295 628.1625000000001,1295 628.1625000000001,1413 1518.3500000000004,1413" fill="none" stroke="var(--_line)" stroke-width="0.75" marker-end="url(#arrowhead)" />
<polyline points="1840,1275 1840,1295 1765.525,1295 1765.525,1395" fill="none" stroke="var(--_line)" stroke-width="0.75" marker-end="url(#arrowhead)" />
<polyline points="1840,1275 1840,1295 1914.4750000000004,1295 1914.4750000000004,1395" fill="none" stroke="var(--_line)" stroke-width="0.75" marker-end="url(#arrowhead)" />
<polyline points="1840,1239 1840,1239 1974.5375,1239 1974.5375,1257 1988.9500000000003,1257 1988.9500000000003,1275 1960.125,1275 1960.125,1257 1902.475,1257" fill="none" stroke="var(--_line)" stroke-width="0.75" marker-end="url(#arrowhead)" />
<rect x="114.33000000000004" y="499" width="84.64" height="27" rx="4" ry="4" fill="var(--bg)" stroke="var(--_inner-stroke)" stroke-width="0.5" />
<text x="156.65000000000003" y="512.5" text-anchor="middle" dy="0.35em" font-size="11" font-weight="400" fill="var(--_text-muted)">&quot;Public Key&quot;</text>
<rect x="253.86000000000007" y="672" width="38.88" height="27" rx="4" ry="4" fill="var(--bg)" stroke="var(--_inner-stroke)" stroke-width="0.5" />
<text x="273.30000000000007" y="685.5" text-anchor="middle" dy="0.35em" font-size="11" font-weight="400" fill="var(--_text-muted)">&quot;DH&quot;</text>
<rect x="560.1225000000001" y="845" width="38.88" height="27" rx="4" ry="4" fill="var(--bg)" stroke="var(--_inner-stroke)" stroke-width="0.5" />
<text x="579.5625000000001" y="858.5" text-anchor="middle" dy="0.35em" font-size="11" font-weight="400" fill="var(--_text-muted)">&quot;DH&quot;</text>
<rect x="136.80000000000013" y="96" width="139.25" height="36" rx="0" ry="0" fill="var(--_node-fill)" stroke="var(--_node-stroke)" stroke-width="0.75" />
<rect x="136.80000000000013" y="252" width="139.25" height="36" rx="0" ry="0" fill="var(--_node-fill)" stroke="var(--_node-stroke)" stroke-width="0.75" />
<rect x="133.22500000000014" y="408" width="146.4" height="36" rx="0" ry="0" fill="var(--_node-fill)" stroke="var(--_node-stroke)" stroke-width="0.75" />
<rect x="62.00000000000003" y="581" width="189.3" height="36" rx="0" ry="0" fill="var(--_node-fill)" stroke="var(--_node-stroke)" stroke-width="0.75" />
<rect x="210.82500000000007" y="1083" width="124.95" height="36" rx="0" ry="0" fill="var(--_node-fill)" stroke="var(--_node-stroke)" stroke-width="0.75" />
<rect x="203.67500000000007" y="927" width="139.25" height="36" rx="0" ry="0" fill="var(--_node-fill)" stroke="var(--_node-stroke)" stroke-width="0.75" />
<rect x="476.27500000000015" y="1239" width="167.85000000000002" height="36" rx="0" ry="0" fill="var(--_node-fill)" stroke="var(--_node-stroke)" stroke-width="0.75" />
<rect x="462.3375000000001" y="927" width="139.25" height="36" rx="0" ry="0" fill="var(--_node-fill)" stroke="var(--_node-stroke)" stroke-width="0.75" />
<rect x="476.48250000000013" y="754" width="146.4" height="36" rx="0" ry="0" fill="var(--_node-fill)" stroke="var(--_node-stroke)" stroke-width="0.75" />
<rect x="406.9250000000001" y="1395" width="253.65" height="36" rx="0" ry="0" fill="var(--_node-fill)" stroke="var(--_node-stroke)" stroke-width="0.75" />
<rect x="482.0000000000001" y="1551" width="103.5" height="36" rx="0" ry="0" fill="var(--_node-fill)" stroke="var(--_node-stroke)" stroke-width="0.75" />
<rect x="279.4250000000002" y="1707" width="153.55" height="36" rx="0" ry="0" fill="var(--_node-fill)" stroke="var(--_node-stroke)" stroke-width="0.75" />
<rect x="456.97500000000014" y="1707" width="153.55" height="36" rx="0" ry="0" fill="var(--_node-fill)" stroke="var(--_node-stroke)" stroke-width="0.75" />
<rect x="1185.2125" y="1395" width="175" height="36" rx="0" ry="0" fill="var(--_node-fill)" stroke="var(--_node-stroke)" stroke-width="0.75" />
<rect x="1092.8625000000004" y="1551" width="167.85000000000002" height="36" rx="0" ry="0" fill="var(--_node-fill)" stroke="var(--_node-stroke)" stroke-width="0.75" />
<rect x="1284.7125000000003" y="1551" width="167.85000000000002" height="36" rx="0" ry="0" fill="var(--_node-fill)" stroke="var(--_node-stroke)" stroke-width="0.75" />
<rect x="1210.2375000000002" y="1239" width="124.95" height="36" rx="0" ry="0" fill="var(--_node-fill)" stroke="var(--_node-stroke)" stroke-width="0.75" />
<rect x="809.7750000000001" y="1395" width="124.95" height="36" rx="0" ry="0" fill="var(--_node-fill)" stroke="var(--_node-stroke)" stroke-width="0.75" />
<rect x="724.575" y="1551" width="132.10000000000002" height="36" rx="0" ry="0" fill="var(--_node-fill)" stroke="var(--_node-stroke)" stroke-width="0.75" />
<rect x="880.6750000000001" y="1551" width="146.4" height="36" rx="0" ry="0" fill="var(--_node-fill)" stroke="var(--_node-stroke)" stroke-width="0.75" />
<rect x="1518.3500000000004" y="1395" width="160.70000000000002" height="36" rx="0" ry="0" fill="var(--_node-fill)" stroke="var(--_node-stroke)" stroke-width="0.75" />
<rect x="1703.0500000000002" y="1395" width="124.95" height="36" rx="0" ry="0" fill="var(--_node-fill)" stroke="var(--_node-stroke)" stroke-width="0.75" />
<rect x="1852.0000000000005" y="1395" width="124.95" height="36" rx="0" ry="0" fill="var(--_node-fill)" stroke="var(--_node-stroke)" stroke-width="0.75" />
<rect x="1777.525" y="1239" width="124.95" height="36" rx="0" ry="0" fill="var(--_node-fill)" stroke="var(--_node-stroke)" stroke-width="0.75" />
<text x="206.42500000000013" y="114" text-anchor="middle" dy="0.35em" font-size="13" font-weight="500" fill="var(--_text)">&quot;CLI Interface&quot;</text>
<text x="206.42500000000013" y="270" text-anchor="middle" dy="0.35em" font-size="13" font-weight="500" fill="var(--_text)">&quot;Crypto Module&quot;</text>
<text x="206.42500000000013" y="426" text-anchor="middle" dy="0.35em" font-size="13" font-weight="500" fill="var(--_text)">&quot;X25519 Keypair&quot;</text>
<text x="156.65000000000003" y="599" text-anchor="middle" dy="0.35em" font-size="13" font-weight="500" fill="var(--_text)">&quot;WebSocket Connection&quot;</text>
<text x="273.30000000000007" y="1101" text-anchor="middle" dy="0.35em" font-size="13" font-weight="500" fill="var(--_text)">&quot;AES-256-GCM&quot;</text>
<text x="273.30000000000007" y="945" text-anchor="middle" dy="0.35em" font-size="13" font-weight="500" fill="var(--_text)">&quot;Shared Secret&quot;</text>
<text x="560.2000000000002" y="1257" text-anchor="middle" dy="0.35em" font-size="13" font-weight="500" fill="var(--_text)">&quot;WebSocket Handler&quot;</text>
<text x="531.9625000000001" y="945" text-anchor="middle" dy="0.35em" font-size="13" font-weight="500" fill="var(--_text)">&quot;Crypto Module&quot;</text>
<text x="549.6825000000001" y="772" text-anchor="middle" dy="0.35em" font-size="13" font-weight="500" fill="var(--_text)">&quot;X25519 Keypair&quot;</text>
<text x="533.7500000000001" y="1413" text-anchor="middle" dy="0.35em" font-size="13" font-weight="500" fill="var(--_text)">&quot;Rate Limiter&lt;br/&gt;(5 attempts)&quot;</text>
<text x="533.7500000000001" y="1569" text-anchor="middle" dy="0.35em" font-size="13" font-weight="500" fill="var(--_text)">&quot;Argon2id&quot;</text>
<text x="356.20000000000016" y="1725" text-anchor="middle" dy="0.35em" font-size="13" font-weight="500" fill="var(--_text)">&quot;Salt Generation&quot;</text>
<text x="533.7500000000001" y="1725" text-anchor="middle" dy="0.35em" font-size="13" font-weight="500" fill="var(--_text)">&quot;Password Verify&quot;</text>
<text x="1272.7125" y="1413" text-anchor="middle" dy="0.35em" font-size="13" font-weight="500" fill="var(--_text)">&quot;pgcrypto Extension&quot;</text>
<text x="1176.7875000000004" y="1569" text-anchor="middle" dy="0.35em" font-size="13" font-weight="500" fill="var(--_text)">&quot;pgp_sym_encrypt()&quot;</text>
<text x="1368.6375000000003" y="1569" text-anchor="middle" dy="0.35em" font-size="13" font-weight="500" fill="var(--_text)">&quot;pgp_sym_decrypt()&quot;</text>
<text x="1272.7125" y="1257" text-anchor="middle" dy="0.35em" font-size="13" font-weight="500" fill="var(--_text)">&quot;DB_PASS Key&quot;</text>
<text x="872.2500000000001" y="1413" text-anchor="middle" dy="0.35em" font-size="13" font-weight="500" fill="var(--_text)">&quot;BLAKE3 Hash&quot;</text>
<text x="790.625" y="1569" text-anchor="middle" dy="0.35em" font-size="13" font-weight="500" fill="var(--_text)">&quot;Hash Storage&quot;</text>
<text x="953.8750000000001" y="1569" text-anchor="middle" dy="0.35em" font-size="13" font-weight="500" fill="var(--_text)">&quot;Integrity Scan&quot;</text>
<text x="1598.7000000000003" y="1413" text-anchor="middle" dy="0.35em" font-size="13" font-weight="500" fill="var(--_text)">&quot;Unix-style (rwx)&quot;</text>
<text x="1765.525" y="1413" text-anchor="middle" dy="0.35em" font-size="13" font-weight="500" fill="var(--_text)">&quot;Owner Check&quot;</text>
<text x="1914.4750000000004" y="1413" text-anchor="middle" dy="0.35em" font-size="13" font-weight="500" fill="var(--_text)">&quot;Group Check&quot;</text>
<text x="1840" y="1257" text-anchor="middle" dy="0.35em" font-size="13" font-weight="500" fill="var(--_text)">&quot;Other Check&quot;</text>
</svg>