<svg xmlns="http://www.w3.org/2000/svg" viewBox="0 0 1943.4625 1803" width="1943.4625" height="1803" style="--bg:#FFFFFF;--fg:#27272A;background:var(--bg)">
<style>
  @import url('https://fonts.googleapis.com/css2?family=Inter:wght@400;500;600;700&amp;display=swap');
  text { font-family: 'Inter', system-ui, sans-serif; }
  svg {
    /* Derived from --bg and --fg (overridable via --line, --accent, etc.) */
    --_text:          var(--fg);
    --_text-sec:      var(--muted, color-mix(in srgb, var(--fg) 60%, var(--bg)));
    --_text-muted:    var(--muted, color-mix(in srgb, var(--fg) 40%, var(--bg)));
    --_text-faint:    color-mix(in srgb, var(--fg) 25%, var(--bg));
    --_line:          var(--line, color-mix(in srgb, var(--fg) 30%, var(--bg)));
    --_arrow:         var(--accent, color-mix(in srgb, var(--fg) 50%, var(--bg)));
    --_node-fill:     var(--surface, color-mix(in srgb, var(--fg) 3%, var(--bg)));
    --_node-stroke:   var(--border, color-mix(in srgb, var(--fg) 20%, var(--bg)));
    --_group-fill:    var(--bg);
    --_group-hdr:     color-mix(in srgb, var(--fg) 5%, var(--bg));
    --_inner-stroke:  color-mix(in srgb, var(--fg) 12%, var(--bg));
    --_key-badge:     color-mix(in srgb, var(--fg) 10%, var(--bg));
  }
</style>
<defs>
  <marker id="arrowhead" markerWidth="8" markerHeight="4.8" refX="8" refY="2.4" orient="auto">
    <polygon points="0 0, 8 2.4, 0 4.8" fill="var(--_arrow)" />
  </marker>
  <marker id="arrowhead-start" markerWidth="8" markerHeight="4.8" refX="0" refY="2.4" orient="auto-start-reverse">
    <polygon points="8 0, 0 2.4, 8 4.8" fill="var(--_arrow)" />
  </marker>
</defs>
<rect x="87.5124999999999" y="40" width="233.38750000000022" height="424" rx="0" ry="0" fill="var(--_group-fill)" stroke="var(--_node-stroke)" stroke-width="1" />
<rect x="87.5124999999999" y="40" width="233.38750000000022" height="28" rx="0" ry="0" fill="var(--_group-hdr)" stroke="var(--_node-stroke)" stroke-width="1" />
<text x="99.5124999999999" y="54" dy="0.35em" font-size="12" font-weight="600" fill="var(--_text-sec)">&quot;Client Environment&quot;</text>
<rect x="40" y="525" width="324.92500000000007" height="614" rx="0" ry="0" fill="var(--_group-fill)" stroke="var(--_node-stroke)" stroke-width="1" />
<rect x="40" y="525" width="324.92500000000007" height="28" rx="0" ry="0" fill="var(--_group-hdr)" stroke="var(--_node-stroke)" stroke-width="1" />
<text x="52" y="539" dy="0.35em" font-size="12" font-weight="600" fill="var(--_text-sec)">&quot;Transport Security&quot;</text>
<rect x="384.92500000000007" y="698" width="222.91250000000002" height="753" rx="0" ry="0" fill="var(--_group-fill)" stroke="var(--_node-stroke)" stroke-width="1" />
<rect x="384.92500000000007" y="698" width="222.91250000000002" height="28" rx="0" ry="0" fill="var(--_group-hdr)" stroke="var(--_node-stroke)" stroke-width="1" />
<text x="396.92500000000007" y="712" dy="0.35em" font-size="12" font-weight="600" fill="var(--_text-sec)">&quot;Server Environment&quot;</text>
<rect x="196.65" y="1495" width="375.1000000000001" height="268" rx="0" ry="0" fill="var(--_group-fill)" stroke="var(--_node-stroke)" stroke-width="1" />
<rect x="196.65" y="1495" width="375.1000000000001" height="28" rx="0" ry="0" fill="var(--_group-hdr)" stroke="var(--_node-stroke)" stroke-width="1" />
<text x="208.65" y="1509" dy="0.35em" font-size="12" font-weight="600" fill="var(--_text-sec)">&quot;Authentication&quot;</text>
<rect x="994.3375" y="1183" width="385.82500000000005" height="424" rx="0" ry="0" fill="var(--_group-fill)" stroke="var(--_node-stroke)" stroke-width="1" />
<rect x="994.3375" y="1183" width="385.82500000000005" height="28" rx="0" ry="0" fill="var(--_group-hdr)" stroke="var(--_node-stroke)" stroke-width="1" />
<text x="1006.3375" y="1197" dy="0.35em" font-size="12" font-weight="600" fill="var(--_text-sec)">&quot;Database Security&quot;</text>
<rect x="627.8375000000001" y="1339" width="346.4999999999999" height="268" rx="0" ry="0" fill="var(--_group-fill)" stroke="var(--_node-stroke)" stroke-width="1" />
<rect x="627.8375000000001" y="1339" width="346.4999999999999" height="28" rx="0" ry="0" fill="var(--_group-hdr)" stroke="var(--_node-stroke)" stroke-width="1" />
<text x="639.8375000000001" y="1353" dy="0.35em" font-size="12" font-weight="600" fill="var(--_text-sec)">&quot;File Integrity&quot;</text>
<rect x="1400.1625" y="1183" width="503.29999999999995" height="268" rx="0" ry="0" fill="var(--_group-fill)" stroke="var(--_node-stroke)" stroke-width="1" />
<rect x="1400.1625" y="1183" width="503.29999999999995" height="28" rx="0" ry="0" fill="var(--_group-hdr)" stroke="var(--_node-stroke)" stroke-width="1" />
<text x="1412.1625" y="1197" dy="0.35em" font-size="12" font-weight="600" fill="var(--_text-sec)">&quot;Permission System&quot;</text>
<polyline points="204.97500000000008,132 204.97500000000008,252" fill="none" stroke="var(--_line)" stroke-width="0.75" marker-end="url(#arrowhead)" />
<polyline points="204.97500000000008,288 204.97500000000008,408" fill="none" stroke="var(--_line)" stroke-width="0.75" marker-end="url(#arrowhead)" />
<polyline points="204.97500000000008,444 204.97500000000008,464 156.65000000000003,464 156.65000000000003,581" fill="none" stroke="var(--_line)" stroke-width="0.75" marker-end="url(#arrowhead)" />
<polyline points="156.65000000000003,617 156.65000000000003,772 433.58250000000015,772" fill="none" stroke="var(--_line)" stroke-width="0.75" marker-end="url(#arrowhead)" />
<polyline points="506.78250000000014,790 506.78250000000014,810 489.0625000000001,810 489.0625000000001,927" fill="none" stroke="var(--_line)" stroke-width="0.75" marker-end="url(#arrowhead)" />
<polyline points="204.97500000000008,444 204.97500000000008,464 273.30000000000007,464 273.30000000000007,927" fill="none" stroke="var(--_line)" stroke-width="0.75" stroke-dasharray="4 4" marker-end="url(#arrowhead)" />
<polyline points="506.78250000000014,790 506.78250000000014,810 536.6625000000001,810 536.6625000000001,945 342.92500000000007,945" fill="none" stroke="var(--_line)" stroke-width="0.75" stroke-dasharray="4 4" marker-end="url(#arrowhead)" />
<polyline points="273.30000000000007,963 273.30000000000007,1083" fill="none" stroke="var(--_line)" stroke-width="0.75" marker-end="url(#arrowhead)" />
<polyline points="273.30000000000007,1119 273.30000000000007,1159 501.9125000000001,1159 501.9125000000001,1239" fill="none" stroke="var(--_line)" stroke-width="0.75" marker-end="url(#arrowhead)" marker-start="url(#arrowhead-start)" />
<polyline points="501.9125000000001,1275 501.9125000000001,1295 472.9750000000001,1295 472.9750000000001,1395" fill="none" stroke="var(--_line)" stroke-width="0.75" marker-end="url(#arrowhead)" />
<polyline points="472.9750000000001,1431 472.9750000000001,1551" fill="none" stroke="var(--_line)" stroke-width="0.75" marker-end="url(#arrowhead)" />
<polyline points="472.9750000000001,1587 472.9750000000001,1707" fill="none" stroke="var(--_line)" stroke-width="0.75" marker-end="url(#arrowhead)" />
<polyline points="501.9125000000001,1275 501.9125000000001,1295 492.97500000000014,1295 492.97500000000014,1413 1100.8125,1413" fill="none" stroke="var(--_line)" stroke-width="0.75" marker-end="url(#arrowhead)" />
<polyline points="1188.3125,1431 1188.3125,1451 1098.475,1451 1098.475,1551" fill="none" stroke="var(--_line)" stroke-width="0.75" marker-end="url(#arrowhead)" />
<polyline points="1188.3125,1431 1188.3125,1451 1276.025,1451 1276.025,1551" fill="none" stroke="var(--_line)" stroke-width="0.75" marker-end="url(#arrowhead)" />
<polyline points="1188.3125,1275 1188.3125,1395" fill="none" stroke="var(--_line)" stroke-width="0.75" marker-end="url(#arrowhead)" />
<polyline points="501.9125000000001,1275 501.9125000000001,1295 534.8750000000001,1295 534.8750000000001,1413 736.1,1413" fill="none" stroke="var(--_line)" stroke-width="0.75" marker-end="url(#arrowhead)" />
<polyline points="798.575,1431 798.575,1451 715.8875,1451 715.8875,1551" fill="none" stroke="var(--_line)" stroke-width="0.75" marker-end="url(#arrowhead)" />
<polyline points="798.575,1431 798.575,1451 879.1375,1451 879.1375,1551" fill="none" stroke="var(--_line)" stroke-width="0.75" marker-end="url(#arrowhead)" />
<polyline points="501.9125000000001,1275 501.9125000000001,1295 554.8750000000001,1295 554.8750000000001,1413 1422.1625000000001,1413" fill="none" stroke="var(--_line)" stroke-width="0.75" marker-end="url(#arrowhead)" />
<polyline points="1730.5750000000003,1275 1730.5750000000003,1295 1655.0375,1295 1655.0375,1395" fill="none" stroke="var(--_line)" stroke-width="0.75" marker-end="url(#arrowhead)" />
<polyline points="1730.5750000000003,1275 1730.5750000000003,1295 1803.9875000000002,1295 1803.9875000000002,1395" fill="none" stroke="var(--_line)" stroke-width="0.75" marker-end="url(#arrowhead)" />
<polyline points="1730.5750000000003,1239 1730.5750000000003,1239 1864.2270833333332,1239 1864.2270833333332,1257 1878.4625,1257 1878.4625,1275 1849.9916666666668,1275 1849.9916666666668,1257 1793.0500000000002,1257" fill="none" stroke="var(--_line)" stroke-width="0.75" marker-end="url(#arrowhead)" />
<rect x="114.33000000000004" y="499" width="84.64" height="27" rx="4" ry="4" fill="var(--bg)" stroke="var(--_inner-stroke)" stroke-width="0.5" />
<text x="156.65000000000003" y="512.5" text-anchor="middle" dy="0.35em" font-size="11" font-weight="400" fill="var(--_text-muted)">&quot;Public Key&quot;</text>
<rect x="253.86000000000007" y="672" width="38.88" height="27" rx="4" ry="4" fill="var(--bg)" stroke="var(--_inner-stroke)" stroke-width="0.5" />
<text x="273.30000000000007" y="685.5" text-anchor="middle" dy="0.35em" font-size="11" font-weight="400" fill="var(--_text-muted)">&quot;DH&quot;</text>
<rect x="517.2225000000001" y="845" width="38.88" height="27" rx="4" ry="4" fill="var(--bg)" stroke="var(--_inner-stroke)" stroke-width="0.5" />
<text x="536.6625000000001" y="858.5" text-anchor="middle" dy="0.35em" font-size="11" font-weight="400" fill="var(--_text-muted)">&quot;DH&quot;</text>
<rect x="135.35000000000008" y="96" width="139.25" height="36" rx="0" ry="0" fill="var(--_node-fill)" stroke="var(--_node-stroke)" stroke-width="0.75" />
<rect x="135.35000000000008" y="252" width="139.25" height="36" rx="0" ry="0" fill="var(--_node-fill)" stroke="var(--_node-stroke)" stroke-width="0.75" />
<rect x="131.7750000000001" y="408" width="146.4" height="36" rx="0" ry="0" fill="var(--_node-fill)" stroke="var(--_node-stroke)" stroke-width="0.75" />
<rect x="62.00000000000003" y="581" width="189.3" height="36" rx="0" ry="0" fill="var(--_node-fill)" stroke="var(--_node-stroke)" stroke-width="0.75" />
<rect x="210.82500000000007" y="1083" width="124.95" height="36" rx="0" ry="0" fill="var(--_node-fill)" stroke="var(--_node-stroke)" stroke-width="0.75" />
<rect x="203.67500000000007" y="927" width="139.25" height="36" rx="0" ry="0" fill="var(--_node-fill)" stroke="var(--_node-stroke)" stroke-width="0.75" />
<rect x="417.98750000000007" y="1239" width="167.85000000000002" height="36" rx="0" ry="0" fill="var(--_node-fill)" stroke="var(--_node-stroke)" stroke-width="0.75" />
<rect x="419.4375000000001" y="927" width="139.25" height="36" rx="0" ry="0" fill="var(--_node-fill)" stroke="var(--_node-stroke)" stroke-width="0.75" />
<rect x="433.58250000000015" y="754" width="146.4" height="36" rx="0" ry="0" fill="var(--_node-fill)" stroke="var(--_node-stroke)" stroke-width="0.75" />
<rect x="406.92500000000007" y="1395" width="132.10000000000002" height="36" rx="0" ry="0" fill="var(--_node-fill)" stroke="var(--_node-stroke)" stroke-width="0.75" />
<rect x="421.2250000000001" y="1551" width="103.5" height="36" rx="0" ry="0" fill="var(--_node-fill)" stroke="var(--_node-stroke)" stroke-width="0.75" />
<rect x="218.65000000000006" y="1707" width="153.55" height="36" rx="0" ry="0" fill="var(--_node-fill)" stroke="var(--_node-stroke)" stroke-width="0.75" />
<rect x="396.20000000000005" y="1707" width="153.55" height="36" rx="0" ry="0" fill="var(--_node-fill)" stroke="var(--_node-stroke)" stroke-width="0.75" />
<rect x="1100.8125" y="1395" width="175" height="36" rx="0" ry="0" fill="var(--_node-fill)" stroke="var(--_node-stroke)" stroke-width="0.75" />
<rect x="1021.6999999999999" y="1551" width="153.55" height="36" rx="0" ry="0" fill="var(--_node-fill)" stroke="var(--_node-stroke)" stroke-width="0.75" />
<rect x="1199.25" y="1551" width="153.55" height="36" rx="0" ry="0" fill="var(--_node-fill)" stroke="var(--_node-stroke)" stroke-width="0.75" />
<rect x="1125.8375" y="1239" width="124.95" height="36" rx="0" ry="0" fill="var(--_node-fill)" stroke="var(--_node-stroke)" stroke-width="0.75" />
<rect x="736.1" y="1395" width="124.95" height="36" rx="0" ry="0" fill="var(--_node-fill)" stroke="var(--_node-stroke)" stroke-width="0.75" />
<rect x="649.8375000000001" y="1551" width="132.10000000000002" height="36" rx="0" ry="0" fill="var(--_node-fill)" stroke="var(--_node-stroke)" stroke-width="0.75" />
<rect x="805.9375" y="1551" width="146.4" height="36" rx="0" ry="0" fill="var(--_node-fill)" stroke="var(--_node-stroke)" stroke-width="0.75" />
<rect x="1422.1625000000001" y="1395" width="146.4" height="36" rx="0" ry="0" fill="var(--_node-fill)" stroke="var(--_node-stroke)" stroke-width="0.75" />
<rect x="1592.5625" y="1395" width="124.95" height="36" rx="0" ry="0" fill="var(--_node-fill)" stroke="var(--_node-stroke)" stroke-width="0.75" />
<rect x="1741.5125000000003" y="1395" width="124.95" height="36" rx="0" ry="0" fill="var(--_node-fill)" stroke="var(--_node-stroke)" stroke-width="0.75" />
<rect x="1668.1000000000004" y="1239" width="124.95" height="36" rx="0" ry="0" fill="var(--_node-fill)" stroke="var(--_node-stroke)" stroke-width="0.75" />
<text x="204.97500000000008" y="114" text-anchor="middle" dy="0.35em" font-size="13" font-weight="500" fill="var(--_text)">&quot;CLI Interface&quot;</text>
<text x="204.97500000000008" y="270" text-anchor="middle" dy="0.35em" font-size="13" font-weight="500" fill="var(--_text)">&quot;Crypto Module&quot;</text>
<text x="204.97500000000008" y="426" text-anchor="middle" dy="0.35em" font-size="13" font-weight="500" fill="var(--_text)">&quot;X25519 Keypair&quot;</text>
<text x="156.65000000000003" y="599" text-anchor="middle" dy="0.35em" font-size="13" font-weight="500" fill="var(--_text)">&quot;WebSocket Connection&quot;</text>
<text x="273.30000000000007" y="1101" text-anchor="middle" dy="0.35em" font-size="13" font-weight="500" fill="var(--_text)">&quot;AES-256-GCM&quot;</text>
<text x="273.30000000000007" y="945" text-anchor="middle" dy="0.35em" font-size="13" font-weight="500" fill="var(--_text)">&quot;Shared Secret&quot;</text>
<text x="501.9125000000001" y="1257" text-anchor="middle" dy="0.35em" font-size="13" font-weight="500" fill="var(--_text)">&quot;WebSocket Handler&quot;</text>
<text x="489.0625000000001" y="945" text-anchor="middle" dy="0.35em" font-size="13" font-weight="500" fill="var(--_text)">&quot;Crypto Module&quot;</text>
<text x="506.78250000000014" y="772" text-anchor="middle" dy="0.35em" font-size="13" font-weight="500" fill="var(--_text)">&quot;X25519 Keypair&quot;</text>
<text x="472.9750000000001" y="1413" text-anchor="middle" dy="0.35em" font-size="13" font-weight="500" fill="var(--_text)">&quot;Rate Limiter&quot;</text>
<text x="472.9750000000001" y="1569" text-anchor="middle" dy="0.35em" font-size="13" font-weight="500" fill="var(--_text)">&quot;Argon2id&quot;</text>
<text x="295.42500000000007" y="1725" text-anchor="middle" dy="0.35em" font-size="13" font-weight="500" fill="var(--_text)">&quot;Salt Generation&quot;</text>
<text x="472.975" y="1725" text-anchor="middle" dy="0.35em" font-size="13" font-weight="500" fill="var(--_text)">&quot;Password Verify&quot;</text>
<text x="1188.3125" y="1413" text-anchor="middle" dy="0.35em" font-size="13" font-weight="500" fill="var(--_text)">&quot;pgcrypto Extension&quot;</text>
<text x="1098.475" y="1569" text-anchor="middle" dy="0.35em" font-size="13" font-weight="500" fill="var(--_text)">&quot;pgp_sym_encrypt&quot;</text>
<text x="1276.025" y="1569" text-anchor="middle" dy="0.35em" font-size="13" font-weight="500" fill="var(--_text)">&quot;pgp_sym_decrypt&quot;</text>
<text x="1188.3125" y="1257" text-anchor="middle" dy="0.35em" font-size="13" font-weight="500" fill="var(--_text)">&quot;DB_PASS Key&quot;</text>
<text x="798.575" y="1413" text-anchor="middle" dy="0.35em" font-size="13" font-weight="500" fill="var(--_text)">&quot;BLAKE3 Hash&quot;</text>
<text x="715.8875" y="1569" text-anchor="middle" dy="0.35em" font-size="13" font-weight="500" fill="var(--_text)">&quot;Hash Storage&quot;</text>
<text x="879.1375" y="1569" text-anchor="middle" dy="0.35em" font-size="13" font-weight="500" fill="var(--_text)">&quot;Integrity Scan&quot;</text>
<text x="1495.3625000000002" y="1413" text-anchor="middle" dy="0.35em" font-size="13" font-weight="500" fill="var(--_text)">&quot;Unix-style rwx&quot;</text>
<text x="1655.0375" y="1413" text-anchor="middle" dy="0.35em" font-size="13" font-weight="500" fill="var(--_text)">&quot;Owner Check&quot;</text>
<text x="1803.9875000000002" y="1413" text-anchor="middle" dy="0.35em" font-size="13" font-weight="500" fill="var(--_text)">&quot;Group Check&quot;</text>
<text x="1730.5750000000003" y="1257" text-anchor="middle" dy="0.35em" font-size="13" font-weight="500" fill="var(--_text)">&quot;Other Check&quot;</text>
</svg>