<svg xmlns="http://www.w3.org/2000/svg" viewBox="0 0 1173.435 488" width="1173.435" height="488" style="--bg:#FFFFFF;--fg:#27272A;background:var(--bg)">
<style>
  @import url('https://fonts.googleapis.com/css2?family=Inter:wght@400;500;600;700&amp;display=swap');
  text { font-family: 'Inter', system-ui, sans-serif; }
  svg {
    /* Derived from --bg and --fg (overridable via --line, --accent, etc.) */
    --_text:          var(--fg);
    --_text-sec:      var(--muted, color-mix(in srgb, var(--fg) 60%, var(--bg)));
    --_text-muted:    var(--muted, color-mix(in srgb, var(--fg) 40%, var(--bg)));
    --_text-faint:    color-mix(in srgb, var(--fg) 25%, var(--bg));
    --_line:          var(--line, color-mix(in srgb, var(--fg) 30%, var(--bg)));
    --_arrow:         var(--accent, color-mix(in srgb, var(--fg) 50%, var(--bg)));
    --_node-fill:     var(--surface, color-mix(in srgb, var(--fg) 3%, var(--bg)));
    --_node-stroke:   var(--border, color-mix(in srgb, var(--fg) 20%, var(--bg)));
    --_group-fill:    var(--bg);
    --_group-hdr:     color-mix(in srgb, var(--fg) 5%, var(--bg));
    --_inner-stroke:  color-mix(in srgb, var(--fg) 12%, var(--bg));
    --_key-badge:     color-mix(in srgb, var(--fg) 10%, var(--bg));
  }
</style>
<defs>
  <marker id="arrowhead" markerWidth="8" markerHeight="4.8" refX="8" refY="2.4" orient="auto">
    <polygon points="0 0, 8 2.4, 0 4.8" fill="var(--_arrow)" />
  </marker>
  <marker id="arrowhead-start" markerWidth="8" markerHeight="4.8" refX="0" refY="2.4" orient="auto-start-reverse">
    <polygon points="8 0, 0 2.4, 8 4.8" fill="var(--_arrow)" />
  </marker>
</defs>
<polyline points="70,262 70,337 327.9375,337" fill="none" stroke="var(--_line)" stroke-width="0.75" marker-end="url(#arrowhead)" />
<polyline points="386.8375,319 386.8375,290.5 876.115,290.5 876.115,151 806.5,151" fill="none" stroke="var(--_line)" stroke-width="0.75" marker-end="url(#arrowhead)" />
<polyline points="754.75,169 754.75,226" fill="none" stroke="var(--_line)" stroke-width="0.75" marker-end="url(#arrowhead)" />
<polyline points="754.75,169 754.75,197.5 174.61999999999995,197.5 174.61999999999995,337 327.9375,337" fill="none" stroke="var(--_line)" stroke-width="0.75" marker-end="url(#arrowhead)" />
<polyline points="754.75,262 754.75,290.5 943.0150000000001,290.5 943.0150000000001,337 992.9,337" fill="none" stroke="var(--_line)" stroke-width="0.75" marker-end="url(#arrowhead)" />
<polyline points="754.75,262 754.75,290.5 252.95999999999998,290.5 252.95999999999998,337 327.9375,337" fill="none" stroke="var(--_line)" stroke-width="0.75" marker-end="url(#arrowhead)" />
<polyline points="1055.375,319 1055.375,290.5 1100.835,290.5 1100.835,58 883.4100000000001,58" fill="none" stroke="var(--_line)" stroke-width="0.75" marker-end="url(#arrowhead)" />
<polyline points="817.36,76 817.36,104.5 381.05999999999995,104.5 381.05999999999995,133" fill="none" stroke="var(--_line)" stroke-width="0.75" marker-end="url(#arrowhead)" />
<polyline points="817.36,76 817.36,104.5 1009.915,104.5 1009.915,337 992.9,337" fill="none" stroke="var(--_line)" stroke-width="0.75" marker-end="url(#arrowhead)" />
<polyline points="817.36,76 817.36,104.5 624.805,104.5 624.805,133" fill="none" stroke="var(--_line)" stroke-width="0.75" marker-end="url(#arrowhead)" />
<polyline points="381.05999999999995,169 381.06,226" fill="none" stroke="var(--_line)" stroke-width="0.75" marker-end="url(#arrowhead)" />
<polyline points="381.06,226 381.06,226 493.8016666666667,226 493.8016666666667,244 505.285,244 505.285,262 482.3183333333333,262 482.3183333333333,244 436.385,244" fill="none" stroke="var(--_line)" stroke-width="0.75" marker-end="url(#arrowhead)" />
<polyline points="381.06,262 381.06,337 327.9375,337" fill="none" stroke="var(--_line)" stroke-width="0.75" marker-end="url(#arrowhead)" />
<polyline points="624.805,169 624.805,337 445.73749999999995,337" fill="none" stroke="var(--_line)" stroke-width="0.75" marker-end="url(#arrowhead)" />
<polyline points="386.8375,355 386.8375,412" fill="none" stroke="var(--_line)" stroke-width="0.75" marker-end="url(#arrowhead)" />
<rect x="828.075" y="230.5" width="96.08" height="27" rx="4" ry="4" fill="var(--bg)" stroke="var(--_inner-stroke)" stroke-width="0.5" />
<text x="876.115" y="244" text-anchor="middle" dy="0.35em" font-size="11" font-weight="400" fill="var(--_text-muted)">Auto Reconnect</text>
<rect x="712.43" y="184" width="84.64" height="27" rx="4" ry="4" fill="var(--bg)" stroke="var(--_inner-stroke)" stroke-width="0.5" />
<text x="754.75" y="197.5" text-anchor="middle" dy="0.35em" font-size="11" font-weight="400" fill="var(--_text-muted)">WebSocket OK</text>
<rect x="117.99999999999994" y="230.5" width="113.24000000000001" height="27" rx="4" ry="4" fill="var(--bg)" stroke="var(--_inner-stroke)" stroke-width="0.5" />
<text x="174.61999999999995" y="244" text-anchor="middle" dy="0.35em" font-size="11" font-weight="400" fill="var(--_text-muted)">Connection Failed</text>
<rect x="892.1150000000001" y="277" width="101.8" height="27" rx="4" ry="4" fill="var(--bg)" stroke="var(--_inner-stroke)" stroke-width="0.5" />
<text x="943.0150000000001" y="290.5" text-anchor="middle" dy="0.35em" font-size="11" font-weight="400" fill="var(--_text-muted)">X25519 Complete</text>
<rect x="190.61999999999998" y="277" width="124.68" height="27" rx="4" ry="4" fill="var(--bg)" stroke="var(--_inner-stroke)" stroke-width="0.5" />
<text x="252.95999999999998" y="290.5" text-anchor="middle" dy="0.35em" font-size="11" font-weight="400" fill="var(--_text-muted)">Key Exchange Failed</text>
<rect x="1064.2350000000001" y="184" width="73.2" height="27" rx="4" ry="4" fill="var(--bg)" stroke="var(--_inner-stroke)" stroke-width="0.5" />
<text x="1100.835" y="197.5" text-anchor="middle" dy="0.35em" font-size="11" font-weight="400" fill="var(--_text-muted)">Send Login</text>
<rect x="335.87999999999994" y="91" width="90.36" height="27" rx="4" ry="4" fill="var(--bg)" stroke="var(--_inner-stroke)" stroke-width="0.5" />
<text x="381.05999999999995" y="104.5" text-anchor="middle" dy="0.35em" font-size="11" font-weight="400" fill="var(--_text-muted)">Login Success</text>
<rect x="967.5949999999999" y="184" width="84.64" height="27" rx="4" ry="4" fill="var(--bg)" stroke="var(--_inner-stroke)" stroke-width="0.5" />
<text x="1009.915" y="197.5" text-anchor="middle" dy="0.35em" font-size="11" font-weight="400" fill="var(--_text-muted)">Login Failed</text>
<rect x="582.4849999999999" y="91" width="84.64" height="27" rx="4" ry="4" fill="var(--bg)" stroke="var(--_inner-stroke)" stroke-width="0.5" />
<text x="624.805" y="104.5" text-anchor="middle" dy="0.35em" font-size="11" font-weight="400" fill="var(--_text-muted)">Max Attempts</text>
<rect x="358.76" y="184" width="44.6" height="27" rx="4" ry="4" fill="var(--bg)" stroke="var(--_inner-stroke)" stroke-width="0.5" />
<text x="381.06" y="197.5" text-anchor="middle" dy="0.35em" font-size="11" font-weight="400" fill="var(--_text-muted)">Ready</text>
<rect x="454.38500000000005" y="230.5" width="101.8" height="27" rx="4" ry="4" fill="var(--bg)" stroke="var(--_inner-stroke)" stroke-width="0.5" />
<text x="505.285" y="244" text-anchor="middle" dy="0.35em" font-size="11" font-weight="400" fill="var(--_text-muted)">Execute Command</text>
<rect x="327.3" y="277" width="107.52000000000001" height="27" rx="4" ry="4" fill="var(--bg)" stroke="var(--_inner-stroke)" stroke-width="0.5" />
<text x="381.06" y="290.5" text-anchor="middle" dy="0.35em" font-size="11" font-weight="400" fill="var(--_text-muted)">Connection Error</text>
<rect x="568.1850000000001" y="230.5" width="113.24000000000001" height="27" rx="4" ry="4" fill="var(--bg)" stroke="var(--_inner-stroke)" stroke-width="0.5" />
<text x="624.8050000000001" y="244" text-anchor="middle" dy="0.35em" font-size="11" font-weight="400" fill="var(--_text-muted)">Connection Closed</text>
<rect x="367.3975" y="370" width="38.88" height="27" rx="4" ry="4" fill="var(--bg)" stroke="var(--_inner-stroke)" stroke-width="0.5" />
<text x="386.8375" y="383.5" text-anchor="middle" dy="0.35em" font-size="11" font-weight="400" fill="var(--_text-muted)">Exit</text>
<circle cx="70" cy="244" r="16" fill="var(--_text)" stroke="none" />
<rect x="327.9375" y="319" width="117.80000000000001" height="36" rx="6" ry="6" fill="var(--_node-fill)" stroke="var(--_node-stroke)" stroke-width="0.75" />
<rect x="703" y="133" width="103.5" height="36" rx="6" ry="6" fill="var(--_node-fill)" stroke="var(--_node-stroke)" stroke-width="0.75" />
<rect x="699.425" y="226" width="110.65" height="36" rx="6" ry="6" fill="var(--_node-fill)" stroke="var(--_node-stroke)" stroke-width="0.75" />
<rect x="992.9" y="319" width="124.95" height="36" rx="6" ry="6" fill="var(--_node-fill)" stroke="var(--_node-stroke)" stroke-width="0.75" />
<rect x="751.31" y="40" width="132.10000000000002" height="36" rx="6" ry="6" fill="var(--_node-fill)" stroke="var(--_node-stroke)" stroke-width="0.75" />
<rect x="318.5849999999999" y="133" width="124.95" height="36" rx="6" ry="6" fill="var(--_node-fill)" stroke="var(--_node-stroke)" stroke-width="0.75" />
<rect x="583.78" y="133" width="82.05000000000001" height="36" rx="6" ry="6" fill="var(--_node-fill)" stroke="var(--_node-stroke)" stroke-width="0.75" />
<rect x="325.735" y="226" width="110.65" height="36" rx="6" ry="6" fill="var(--_node-fill)" stroke="var(--_node-stroke)" stroke-width="0.75" />
<circle cx="386.8375" cy="430" r="16" fill="none" stroke="var(--_text)" stroke-width="1.5" />
<circle cx="386.8375" cy="430" r="12" fill="var(--_text)" stroke="none" />

<text x="386.8375" y="337" text-anchor="middle" dy="0.35em" font-size="13" font-weight="500" fill="var(--_text)">Disconnected</text>
<text x="754.75" y="151" text-anchor="middle" dy="0.35em" font-size="13" font-weight="500" fill="var(--_text)">Connecting</text>
<text x="754.75" y="244" text-anchor="middle" dy="0.35em" font-size="13" font-weight="500" fill="var(--_text)">KeyExchange</text>
<text x="1055.375" y="337" text-anchor="middle" dy="0.35em" font-size="13" font-weight="500" fill="var(--_text)">SecureChannel</text>
<text x="817.3599999999999" y="58" text-anchor="middle" dy="0.35em" font-size="13" font-weight="500" fill="var(--_text)">Authenticating</text>
<text x="381.05999999999995" y="151" text-anchor="middle" dy="0.35em" font-size="13" font-weight="500" fill="var(--_text)">Authenticated</text>
<text x="624.805" y="151" text-anchor="middle" dy="0.35em" font-size="13" font-weight="500" fill="var(--_text)">Blocked</text>
<text x="381.06" y="244" text-anchor="middle" dy="0.35em" font-size="13" font-weight="500" fill="var(--_text)">CommandLoop</text>

</svg>