<svg xmlns="http://www.w3.org/2000/svg" viewBox="0 0 7858.725 750" width="7858.725" height="750" style="--bg:#FFFFFF;--fg:#27272A;background:var(--bg)">
<style>
  @import url('https://fonts.googleapis.com/css2?family=Inter:wght@400;500;600;700&amp;display=swap');
  text { font-family: 'Inter', system-ui, sans-serif; }
  svg {
    /* Derived from --bg and --fg (overridable via --line, --accent, etc.) */
    --_text:          var(--fg);
    --_text-sec:      var(--muted, color-mix(in srgb, var(--fg) 60%, var(--bg)));
    --_text-muted:    var(--muted, color-mix(in srgb, var(--fg) 40%, var(--bg)));
    --_text-faint:    color-mix(in srgb, var(--fg) 25%, var(--bg));
    --_line:          var(--line, color-mix(in srgb, var(--fg) 30%, var(--bg)));
    --_arrow:         var(--accent, color-mix(in srgb, var(--fg) 50%, var(--bg)));
    --_node-fill:     var(--surface, color-mix(in srgb, var(--fg) 3%, var(--bg)));
    --_node-stroke:   var(--border, color-mix(in srgb, var(--fg) 20%, var(--bg)));
    --_group-fill:    var(--bg);
    --_group-hdr:     color-mix(in srgb, var(--fg) 5%, var(--bg));
    --_inner-stroke:  color-mix(in srgb, var(--fg) 12%, var(--bg));
    --_key-badge:     color-mix(in srgb, var(--fg) 10%, var(--bg));
  }
</style>
<defs>
  <marker id="arrowhead" markerWidth="8" markerHeight="4.8" refX="8" refY="2.4" orient="auto">
    <polygon points="0 0, 8 2.4, 0 4.8" fill="var(--_arrow)" />
  </marker>
  <marker id="arrowhead-start" markerWidth="8" markerHeight="4.8" refX="0" refY="2.4" orient="auto-start-reverse">
    <polygon points="8 0, 0 2.4, 8 4.8" fill="var(--_arrow)" />
  </marker>
</defs>
<rect x="157.54999999999973" y="40" width="5583.474999999999" height="358" rx="0" ry="0" fill="var(--_group-fill)" stroke="var(--_node-stroke)" stroke-width="1" />
<rect x="157.54999999999973" y="40" width="5583.474999999999" height="28" rx="0" ry="0" fill="var(--_group-hdr)" stroke="var(--_node-stroke)" stroke-width="1" />
<text x="169.54999999999973" y="54" dy="0.35em" font-size="12" font-weight="600" fill="var(--_text-sec)">Actors</text>
<rect x="638.1499999999994" y="442" width="3467.399999999999" height="112" rx="0" ry="0" fill="var(--_group-fill)" stroke="var(--_node-stroke)" stroke-width="1" />
<rect x="638.1499999999994" y="442" width="3467.399999999999" height="28" rx="0" ry="0" fill="var(--_group-hdr)" stroke="var(--_node-stroke)" stroke-width="1" />
<text x="650.1499999999994" y="456" dy="0.35em" font-size="12" font-weight="600" fill="var(--_text-sec)">&quot;File System Operations&quot;</text>
<rect x="4125.549999999999" y="442" width="1808.6500000000005" height="112" rx="0" ry="0" fill="var(--_group-fill)" stroke="var(--_node-stroke)" stroke-width="1" />
<rect x="4125.549999999999" y="442" width="1808.6500000000005" height="28" rx="0" ry="0" fill="var(--_group-hdr)" stroke="var(--_node-stroke)" stroke-width="1" />
<text x="4137.549999999999" y="456" dy="0.35em" font-size="12" font-weight="600" fill="var(--_text-sec)">&quot;Security &amp; Permissions&quot;</text>
<rect x="42.84999999999991" y="442" width="575.2999999999996" height="112" rx="0" ry="0" fill="var(--_group-fill)" stroke="var(--_node-stroke)" stroke-width="1" />
<rect x="42.84999999999991" y="442" width="575.2999999999996" height="28" rx="0" ry="0" fill="var(--_group-hdr)" stroke="var(--_node-stroke)" stroke-width="1" />
<text x="54.84999999999991" y="456" dy="0.35em" font-size="12" font-weight="600" fill="var(--_text-sec)">&quot;Session Management&quot;</text>
<rect x="5761.025" y="244" width="2057.7" height="154" rx="0" ry="0" fill="var(--_group-fill)" stroke="var(--_node-stroke)" stroke-width="1" />
<rect x="5761.025" y="244" width="2057.7" height="28" rx="0" ry="0" fill="var(--_group-hdr)" stroke="var(--_node-stroke)" stroke-width="1" />
<text x="5773.025" y="258" dy="0.35em" font-size="12" font-weight="600" fill="var(--_text-sec)">&quot;Administration&quot;</text>
<rect x="40" y="598" width="6473.6875" height="112" rx="0" ry="0" fill="var(--_group-fill)" stroke="var(--_node-stroke)" stroke-width="1" />
<rect x="40" y="598" width="6473.6875" height="28" rx="0" ry="0" fill="var(--_group-hdr)" stroke="var(--_node-stroke)" stroke-width="1" />
<text x="52" y="612" dy="0.35em" font-size="12" font-weight="600" fill="var(--_text-sec)">&quot;Encryption Layer&quot;</text>
<polyline points="2916.7589975443716,339.83769177222416 2916.7589975443716,398 209.54999999999984,398 209.54999999999984,498" fill="none" stroke="var(--_line)" stroke-width="0.75" marker-end="url(#arrowhead)" />
<polyline points="2916.761134449797,339.93186002611327 2916.761134449797,398 487.19999999999965,398 487.19999999999965,498" fill="none" stroke="var(--_line)" stroke-width="0.75" marker-end="url(#arrowhead)" />
<polyline points="2916.764567071545,340.0658420994782 2916.764567071545,398 797.6999999999996,398 797.6999999999996,498" fill="none" stroke="var(--_line)" stroke-width="0.75" marker-end="url(#arrowhead)" />
<polyline points="2916.769477955147,340.23243706159707 2916.769477955147,398 1089.6499999999996,398 1089.6499999999996,498" fill="none" stroke="var(--_line)" stroke-width="0.75" marker-end="url(#arrowhead)" />
<polyline points="2916.7774891882896,340.4640358708695 2916.7774891882896,398 1385.1749999999993,398 1385.1749999999993,498" fill="none" stroke="var(--_line)" stroke-width="0.75" marker-end="url(#arrowhead)" />
<polyline points="2916.7923947996323,340.8179650855766 2916.7923947996323,398 1691.4249999999993,398 1691.4249999999993,498" fill="none" stroke="var(--_line)" stroke-width="0.75" marker-end="url(#arrowhead)" />
<polyline points="2916.824292408004,341.406094026116 2916.824292408004,398 2001.249999999999,398 2001.249999999999,498" fill="none" stroke="var(--_line)" stroke-width="0.75" marker-end="url(#arrowhead)" />
<polyline points="2916.9178102652136,342.61400614299606 2916.9178102652136,398 2321.7999999999993,398 2321.7999999999993,498" fill="none" stroke="var(--_line)" stroke-width="0.75" marker-end="url(#arrowhead)" />
<polyline points="2917.470476035093,346.46177224392324 2917.470476035093,398 2653.074999999999,398 2653.074999999999,498" fill="none" stroke="var(--_line)" stroke-width="0.75" marker-end="url(#arrowhead)" />
<polyline points="2962.7251012949387,377.37118661085856 2962.7251012949387,398 2966.474999999999,398 2966.474999999999,498" fill="none" stroke="var(--_line)" stroke-width="0.75" marker-end="url(#arrowhead)" />
<polyline points="2994.1057118141825,346.05970050549627 2994.1057118141825,398 3276.2999999999993,398 3276.2999999999993,498" fill="none" stroke="var(--_line)" stroke-width="0.75" marker-end="url(#arrowhead)" />
<polyline points="2994.584054530052,342.59391273639955 2994.584054530052,398 3593.274999999999,398 3593.274999999999,498" fill="none" stroke="var(--_line)" stroke-width="0.75" marker-end="url(#arrowhead)" />
<polyline points="2994.6773448197278,341.37945903220907 2994.6773448197278,398 3920.974999999999,398 3920.974999999999,498" fill="none" stroke="var(--_line)" stroke-width="0.75" marker-end="url(#arrowhead)" />
<polyline points="2994.7143743500556,340.6665927842927 2994.7143743500556,398 4335.15,398 4335.15,498" fill="none" stroke="var(--_line)" stroke-width="0.75" marker-end="url(#arrowhead)" />
<polyline points="2994.727488048229,340.324924695999 2994.727488048229,398 4691.449999999999,398 4691.449999999999,498" fill="none" stroke="var(--_line)" stroke-width="0.75" marker-end="url(#arrowhead)" />
<polyline points="2994.7338998747973,340.1205135214357 2994.7338998747973,398 5008.424999999999,398 5008.424999999999,498" fill="none" stroke="var(--_line)" stroke-width="0.75" marker-end="url(#arrowhead)" />
<polyline points="2994.738097342799,339.96346540590156 2994.738097342799,398 5343.275,398 5343.275,498" fill="none" stroke="var(--_line)" stroke-width="0.75" marker-end="url(#arrowhead)" />
<polyline points="2994.741126116267,339.83191597250175 2994.741126116267,398 5721.025,398 5721.025,498" fill="none" stroke="var(--_line)" stroke-width="0.75" marker-end="url(#arrowhead)" />
<polyline points="4309.791360896113,139.86349256765118 4309.791360896113,200 2955.749999999999,200 2955.749999999999,300" fill="none" stroke="var(--_line)" stroke-width="0.75" marker-end="url(#arrowhead)" />
<polyline points="4393.698206612335,140.08517673325028 4393.698206612335,200 5599.025,200 5599.025,339 5783.025,339" fill="none" stroke="var(--_line)" stroke-width="0.75" marker-end="url(#arrowhead)" />
<polyline points="4393.699825602613,140.05234790188553 4393.699825602613,200 5619.025,200 5619.025,339 6203.674999999999,339" fill="none" stroke="var(--_line)" stroke-width="0.75" marker-end="url(#arrowhead)" />
<polyline points="4393.701369894041,140.02053557587192 4393.701369894041,200 5639.025,200 5639.025,339 6502.775,339" fill="none" stroke="var(--_line)" stroke-width="0.75" marker-end="url(#arrowhead)" />
<polyline points="4393.702844009811,139.98969331518484 4393.702844009811,200 5659.025,200 5659.025,339 6773.275,339" fill="none" stroke="var(--_line)" stroke-width="0.75" marker-end="url(#arrowhead)" />
<polyline points="4393.704252136045,139.9597774631744 4393.704252136045,200 5679.025,200 5679.025,339 7058.074999999999,339" fill="none" stroke="var(--_line)" stroke-width="0.75" marker-end="url(#arrowhead)" />
<polyline points="4393.70559815148,139.93074694133847 4393.70559815148,200 5699.025,200 5699.025,339 7421.524999999999,339" fill="none" stroke="var(--_line)" stroke-width="0.75" marker-end="url(#arrowhead)" />
<polyline points="209.54999999999984,534 209.54999999999984,554 192.39999999999984,554 192.39999999999984,654" fill="none" stroke="var(--_line)" stroke-width="0.75" stroke-dasharray="4 4" marker-end="url(#arrowhead)" />
<polyline points="209.54999999999984,534 209.54999999999984,554 355.5249999999998,554 355.5249999999998,672 1259.7999999999984,672" fill="none" stroke="var(--_line)" stroke-width="0.75" stroke-dasharray="4 4" marker-end="url(#arrowhead)" />
<polyline points="209.54999999999984,534 209.54999999999984,554 413.8499999999998,554 413.8499999999998,672 3301.749999999999,672" fill="none" stroke="var(--_line)" stroke-width="0.75" stroke-dasharray="4 4" marker-end="url(#arrowhead)" />
<polyline points="2321.7999999999993,534 2321.7999999999993,672 1563.4999999999986,672" fill="none" stroke="var(--_line)" stroke-width="0.75" stroke-dasharray="4 4" marker-end="url(#arrowhead)" />
<polyline points="2653.074999999999,534 2653.074999999999,554 2497.437499999999,554 2497.437499999999,672 1563.4999999999986,672" fill="none" stroke="var(--_line)" stroke-width="0.75" stroke-dasharray="4 4" marker-end="url(#arrowhead)" />
<polyline points="2653.074999999999,534 2653.074999999999,554 3369.312499999999,554 3369.312499999999,672 5756.162499999999,672" fill="none" stroke="var(--_line)" stroke-width="0.75" stroke-dasharray="4 4" marker-end="url(#arrowhead)" />
<polyline points="5343.275,534 5343.275,672 5756.162499999999,672" fill="none" stroke="var(--_line)" stroke-width="0.75" stroke-dasharray="4 4" marker-end="url(#arrowhead)" />
<polyline points="1691.4249999999993,534 1691.4249999999993,672 3988.999999999999,672" fill="none" stroke="var(--_line)" stroke-width="0.75" stroke-dasharray="4 4" marker-end="url(#arrowhead)" />
<polyline points="2001.249999999999,534 2001.249999999999,672 3988.999999999999,672" fill="none" stroke="var(--_line)" stroke-width="0.75" stroke-dasharray="4 4" marker-end="url(#arrowhead)" />
<polyline points="5981.349999999999,357 5981.349999999999,398 5967.775,398 5967.775,672 4278.399999999999,672" fill="none" stroke="var(--_line)" stroke-width="0.75" stroke-dasharray="4 4" marker-end="url(#arrowhead)" />
<polyline points="5981.349999999999,357 5981.349999999999,398 5991.349999999999,398 5991.349999999999,672 3569.699999999999,672" fill="none" stroke="var(--_line)" stroke-width="0.75" stroke-dasharray="4 4" marker-end="url(#arrowhead)" />
<circle cx="2955.749999999999" cy="339" r="39" fill="var(--_node-fill)" stroke="var(--_node-stroke)" stroke-width="0.75" />
<circle cx="4351.75" cy="138" r="42" fill="var(--_node-fill)" stroke="var(--_node-stroke)" stroke-width="0.75" />
<rect x="660.1499999999996" y="498" width="275.1" height="36" rx="0" ry="0" fill="var(--_node-fill)" stroke="var(--_node-stroke)" stroke-width="0.75" />
<rect x="959.2499999999997" y="498" width="260.8" height="36" rx="0" ry="0" fill="var(--_node-fill)" stroke="var(--_node-stroke)" stroke-width="0.75" />
<rect x="1244.0499999999993" y="498" width="282.25" height="36" rx="0" ry="0" fill="var(--_node-fill)" stroke="var(--_node-stroke)" stroke-width="0.75" />
<rect x="1550.2999999999993" y="498" width="282.25" height="36" rx="0" ry="0" fill="var(--_node-fill)" stroke="var(--_node-stroke)" stroke-width="0.75" />
<rect x="1856.549999999999" y="498" width="289.40000000000003" height="36" rx="0" ry="0" fill="var(--_node-fill)" stroke="var(--_node-stroke)" stroke-width="0.75" />
<rect x="2169.9499999999994" y="498" width="303.70000000000005" height="36" rx="0" ry="0" fill="var(--_node-fill)" stroke="var(--_node-stroke)" stroke-width="0.75" />
<rect x="2497.6499999999987" y="498" width="310.85" height="36" rx="0" ry="0" fill="var(--_node-fill)" stroke="var(--_node-stroke)" stroke-width="0.75" />
<rect x="2832.499999999999" y="498" width="267.95000000000005" height="36" rx="0" ry="0" fill="var(--_node-fill)" stroke="var(--_node-stroke)" stroke-width="0.75" />
<rect x="3124.4499999999994" y="498" width="303.70000000000005" height="36" rx="0" ry="0" fill="var(--_node-fill)" stroke="var(--_node-stroke)" stroke-width="0.75" />
<rect x="3452.149999999999" y="498" width="282.25" height="36" rx="0" ry="0" fill="var(--_node-fill)" stroke="var(--_node-stroke)" stroke-width="0.75" />
<rect x="3758.399999999999" y="498" width="325.15000000000003" height="36" rx="0" ry="0" fill="var(--_node-fill)" stroke="var(--_node-stroke)" stroke-width="0.75" />
<rect x="4147.549999999999" y="498" width="375.20000000000005" height="36" rx="0" ry="0" fill="var(--_node-fill)" stroke="var(--_node-stroke)" stroke-width="0.75" />
<rect x="4546.749999999999" y="498" width="289.40000000000003" height="36" rx="0" ry="0" fill="var(--_node-fill)" stroke="var(--_node-stroke)" stroke-width="0.75" />
<rect x="4860.15" y="498" width="296.55" height="36" rx="0" ry="0" fill="var(--_node-fill)" stroke="var(--_node-stroke)" stroke-width="0.75" />
<rect x="5180.7" y="498" width="325.15000000000003" height="36" rx="0" ry="0" fill="var(--_node-fill)" stroke="var(--_node-stroke)" stroke-width="0.75" />
<rect x="5529.849999999999" y="498" width="382.35" height="36" rx="0" ry="0" fill="var(--_node-fill)" stroke="var(--_node-stroke)" stroke-width="0.75" />
<rect x="64.84999999999982" y="498" width="289.40000000000003" height="36" rx="0" ry="0" fill="var(--_node-fill)" stroke="var(--_node-stroke)" stroke-width="0.75" />
<rect x="378.24999999999966" y="498" width="217.9" height="36" rx="0" ry="0" fill="var(--_node-fill)" stroke="var(--_node-stroke)" stroke-width="0.75" />
<rect x="5783.025" y="321" width="396.65000000000003" height="36" rx="0" ry="0" fill="var(--_node-fill)" stroke="var(--_node-stroke)" stroke-width="0.75" />
<rect x="6203.674999999999" y="321" width="275.1" height="36" rx="0" ry="0" fill="var(--_node-fill)" stroke="var(--_node-stroke)" stroke-width="0.75" />
<rect x="6502.775" y="321" width="246.50000000000003" height="36" rx="0" ry="0" fill="var(--_node-fill)" stroke="var(--_node-stroke)" stroke-width="0.75" />
<rect x="6773.275" y="321" width="260.8" height="36" rx="0" ry="0" fill="var(--_node-fill)" stroke="var(--_node-stroke)" stroke-width="0.75" />
<rect x="7058.074999999999" y="321" width="339.45000000000005" height="36" rx="0" ry="0" fill="var(--_node-fill)" stroke="var(--_node-stroke)" stroke-width="0.75" />
<rect x="7421.524999999999" y="321" width="375.20000000000005" height="36" rx="0" ry="0" fill="var(--_node-fill)" stroke="var(--_node-stroke)" stroke-width="0.75" />
<rect x="61.99999999999983" y="654" width="260.8" height="36" rx="0" ry="0" fill="var(--_node-fill)" stroke="var(--_node-stroke)" stroke-width="0.75" />
<rect x="1259.7999999999984" y="654" width="303.70000000000005" height="36" rx="0" ry="0" fill="var(--_node-fill)" stroke="var(--_node-stroke)" stroke-width="0.75" />
<rect x="3301.749999999999" y="654" width="267.95000000000005" height="36" rx="0" ry="0" fill="var(--_node-fill)" stroke="var(--_node-stroke)" stroke-width="0.75" />
<rect x="3988.999999999999" y="654" width="289.40000000000003" height="36" rx="0" ry="0" fill="var(--_node-fill)" stroke="var(--_node-stroke)" stroke-width="0.75" />
<rect x="5756.162499999999" y="654" width="239.35000000000002" height="36" rx="0" ry="0" fill="var(--_node-fill)" stroke="var(--_node-stroke)" stroke-width="0.75" />
<text x="2955.749999999999" y="339" text-anchor="middle" dy="0.35em" font-size="13" font-weight="500" fill="var(--_text)">User</text>
<text x="4351.75" y="138" text-anchor="middle" dy="0.35em" font-size="13" font-weight="500" fill="var(--_text)">Admin</text>
<text x="797.6999999999996" y="516" text-anchor="middle" dy="0.35em" font-size="13" font-weight="500" fill="var(--_text)">/&quot;ls&lt;br/&gt;List directory contents&quot;/</text>
<text x="1089.6499999999996" y="516" text-anchor="middle" dy="0.35em" font-size="13" font-weight="500" fill="var(--_text)">/&quot;cd path&lt;br/&gt;Change directory&quot;/</text>
<text x="1385.1749999999993" y="516" text-anchor="middle" dy="0.35em" font-size="13" font-weight="500" fill="var(--_text)">/&quot;pwd&lt;br/&gt;Print working directory&quot;/</text>
<text x="1691.4249999999993" y="516" text-anchor="middle" dy="0.35em" font-size="13" font-weight="500" fill="var(--_text)">/&quot;mkdir name&lt;br/&gt;Create directory&quot;/</text>
<text x="2001.249999999999" y="516" text-anchor="middle" dy="0.35em" font-size="13" font-weight="500" fill="var(--_text)">/&quot;touch name&lt;br/&gt;Create empty file&quot;/</text>
<text x="2321.7999999999993" y="516" text-anchor="middle" dy="0.35em" font-size="13" font-weight="500" fill="var(--_text)">/&quot;cat file&lt;br/&gt;Display file contents&quot;/</text>
<text x="2653.074999999999" y="516" text-anchor="middle" dy="0.35em" font-size="13" font-weight="500" fill="var(--_text)">/&quot;echo content file&lt;br/&gt;Write to file&quot;/</text>
<text x="2966.474999999999" y="516" text-anchor="middle" dy="0.35em" font-size="13" font-weight="500" fill="var(--_text)">/&quot;mv src dst&lt;br/&gt;Move or rename&quot;/</text>
<text x="3276.2999999999993" y="516" text-anchor="middle" dy="0.35em" font-size="13" font-weight="500" fill="var(--_text)">/&quot;delete name&lt;br/&gt;Remove file or dir&quot;/</text>
<text x="3593.274999999999" y="516" text-anchor="middle" dy="0.35em" font-size="13" font-weight="500" fill="var(--_text)">/&quot;cp src dst&lt;br/&gt;Copy recursively&quot;/</text>
<text x="3920.974999999999" y="516" text-anchor="middle" dy="0.35em" font-size="13" font-weight="500" fill="var(--_text)">/&quot;find pattern&lt;br/&gt;Search files by name&quot;/</text>
<text x="4335.15" y="516" text-anchor="middle" dy="0.35em" font-size="13" font-weight="500" fill="var(--_text)">/&quot;chmod mode name&lt;br/&gt;Change permissions (rwx)&quot;/</text>
<text x="4691.449999999999" y="516" text-anchor="middle" dy="0.35em" font-size="13" font-weight="500" fill="var(--_text)">/&quot;chown user name&lt;br/&gt;Change owner&quot;/</text>
<text x="5008.424999999999" y="516" text-anchor="middle" dy="0.35em" font-size="13" font-weight="500" fill="var(--_text)">/&quot;chgrp group name&lt;br/&gt;Change group&quot;/</text>
<text x="5343.275" y="516" text-anchor="middle" dy="0.35em" font-size="13" font-weight="500" fill="var(--_text)">/&quot;scan file&lt;br/&gt;Verify BLAKE3 integrity&quot;/</text>
<text x="5721.025" y="516" text-anchor="middle" dy="0.35em" font-size="13" font-weight="500" fill="var(--_text)">/&quot;get_encrypted_filename&lt;br/&gt;Get encrypted path&quot;/</text>
<text x="209.54999999999984" y="516" text-anchor="middle" dy="0.35em" font-size="13" font-weight="500" fill="var(--_text)">/&quot;login user pass&lt;br/&gt;Authenticate&quot;/</text>
<text x="487.19999999999965" y="516" text-anchor="middle" dy="0.35em" font-size="13" font-weight="500" fill="var(--_text)">/&quot;logout&lt;br/&gt;End session&quot;/</text>
<text x="5981.349999999999" y="339" text-anchor="middle" dy="0.35em" font-size="13" font-weight="500" fill="var(--_text)">/&quot;newuser user pass group&lt;br/&gt;Create user account&quot;/</text>
<text x="6341.224999999999" y="339" text-anchor="middle" dy="0.35em" font-size="13" font-weight="500" fill="var(--_text)">/&quot;newgroup name&lt;br/&gt;Create group&quot;/</text>
<text x="6626.025" y="339" text-anchor="middle" dy="0.35em" font-size="13" font-weight="500" fill="var(--_text)">/&quot;lsusers&lt;br/&gt;List all users&quot;/</text>
<text x="6903.674999999999" y="339" text-anchor="middle" dy="0.35em" font-size="13" font-weight="500" fill="var(--_text)">/&quot;lsgroups&lt;br/&gt;List all groups&quot;/</text>
<text x="7227.799999999999" y="339" text-anchor="middle" dy="0.35em" font-size="13" font-weight="500" fill="var(--_text)">/&quot;add_user_to_group&lt;br/&gt;Add user to group&quot;/</text>
<text x="7609.124999999999" y="339" text-anchor="middle" dy="0.35em" font-size="13" font-weight="500" fill="var(--_text)">/&quot;remove_user_from_group&lt;br/&gt;Remove from group&quot;/</text>
<text x="192.39999999999984" y="672" text-anchor="middle" dy="0.35em" font-size="13" font-weight="500" fill="var(--_text)">/&quot;X25519 ECDH&lt;br/&gt;Key Exchange&quot;/</text>
<text x="1411.6499999999983" y="672" text-anchor="middle" dy="0.35em" font-size="13" font-weight="500" fill="var(--_text)">/&quot;AES-256-GCM&lt;br/&gt;Message Encryption&quot;/</text>
<text x="3435.724999999999" y="672" text-anchor="middle" dy="0.35em" font-size="13" font-weight="500" fill="var(--_text)">/&quot;Argon2id&lt;br/&gt;Password Hashing&quot;/</text>
<text x="4133.699999999999" y="672" text-anchor="middle" dy="0.35em" font-size="13" font-weight="500" fill="var(--_text)">/&quot;pgcrypto&lt;br/&gt;Database Encryption&quot;/</text>
<text x="5875.8375" y="672" text-anchor="middle" dy="0.35em" font-size="13" font-weight="500" fill="var(--_text)">/&quot;BLAKE3&lt;br/&gt;File Integrity&quot;/</text>
</svg>